<svg xmlns="http://www.w3.org/2000/svg" version="1.1" xmlns:xlink="http://www.w3.org/1999/xlink" width="512" height="512" x="0" y="0" viewBox="0 0 68 68" style="enable-background:new 0 0 512 512" xml:space="preserve" class=""><g><path fill="#FEBC1F" d="M63.581 36.265 22.377 58.942a4.669 4.669 0 0 1-6.341-1.84L3.479 34.288a4.669 4.669 0 0 1 1.84-6.34L46.522 5.268a4.669 4.669 0 0 1 6.341 1.84l12.557 22.815a4.669 4.669 0 0 1-1.84 6.34z" opacity="1" data-original="#febc1f" class=""></path><path fill="#FFD475" d="M62.682 34.63 21.477 57.307a4.669 4.669 0 0 1-6.341-1.84L2.579 32.653a4.669 4.669 0 0 1 1.84-6.34L45.623 3.633a4.669 4.669 0 0 1 6.341 1.84l12.557 22.815a4.669 4.669 0 0 1-1.84 6.34z" opacity="1" data-original="#ffd475" class=""></path><path fill="#FEBC1F" d="M45.623 3.634 4.419 26.311a4.669 4.669 0 0 0-1.84 6.341l12.557 22.816S3.436 33.092 49.789 3.472a4.656 4.656 0 0 0-4.166.162z" opacity="1" data-original="#febc1f" class=""></path><path fill="#1D2943" d="m6.27 35.45 1.577 2.865a1.493 1.493 0 0 0 2.027.588L53.342 14.98a1.493 1.493 0 0 0 .588-2.027l-1.577-2.865a1.493 1.493 0 0 0-2.027-.588L6.858 33.423a1.493 1.493 0 0 0-.588 2.027z" opacity="1" data-original="#1d2943"></path><path fill="#4C5C75" d="m5.833 34.656 1.577 2.865a1.493 1.493 0 0 0 2.027.588l43.468-23.923a1.493 1.493 0 0 0 .588-2.027l-1.577-2.865a1.493 1.493 0 0 0-2.027-.588L6.42 32.63a1.493 1.493 0 0 0-.588 2.027z" opacity="1" data-original="#4c5c75" class=""></path><path fill="#5094FF" d="M56.131 64.945H9.1a4.669 4.669 0 0 1-4.669-4.668V34.234A4.669 4.669 0 0 1 9.1 29.566H56.13a4.669 4.669 0 0 1 4.669 4.668v26.043a4.669 4.669 0 0 1-4.669 4.668z" opacity="1" data-original="#5094ff" class=""></path><path fill="#57B3FE" d="M9.099 63.079H56.13A4.669 4.669 0 0 0 60.8 58.41V32.368a4.669 4.669 0 0 0-4.669-4.669H9.1a4.669 4.669 0 0 0-4.669 4.669V58.41A4.669 4.669 0 0 0 9.1 63.08z" opacity="1" data-original="#57b3fe" class=""></path><path fill="#5094FF" d="M9.099 27.7H56.13a4.669 4.669 0 0 1 4.669 4.668V58.41S60.262 33.166 5.37 29.566a4.656 4.656 0 0 1 3.728-1.867z" opacity="1" data-original="#5094ff" class=""></path><path fill="#E3E7F0" d="M57.142 54.7v.724h-.01c.019.98-.798 1.803-1.784 1.803h-4.737c-.967 0-1.803-.808-1.783-1.803h-.01V54.7h.116c.28-.704 1.041-1.186 1.841-1.186h4.41c.8 0 1.561.482 1.841 1.186z" opacity="1" data-original="#e3e7f0"></path><path fill="#FFFFFF" d="M55.343 56.508h-4.579c-.922 0-1.794-.626-1.924-1.54a1.805 1.805 0 0 1 1.785-2.066h4.561c.978 0 1.89.71 1.949 1.686a1.797 1.797 0 0 1-1.792 1.92z" opacity="1" data-original="#ffffff"></path><path fill="#E3E7F0" d="M43.565 54.7v.724h-.01c.02.98-.798 1.803-1.783 1.803h-4.737c-.968 0-1.803-.808-1.784-1.803h-.01V54.7h.116c.28-.704 1.042-1.186 1.842-1.186h4.409c.8 0 1.562.482 1.842 1.186z" opacity="1" data-original="#e3e7f0"></path><path fill="#FFFFFF" d="M41.767 56.508h-4.58c-.922 0-1.794-.626-1.923-1.54a1.805 1.805 0 0 1 1.784-2.066h4.561c.979 0 1.89.71 1.95 1.686a1.797 1.797 0 0 1-1.792 1.92z" opacity="1" data-original="#ffffff"></path><path fill="#E3E7F0" d="M29.989 54.7v.724h-.01c.019.98-.798 1.803-1.784 1.803h-4.737c-.968 0-1.803-.808-1.784-1.803h-.01V54.7h.117c.28-.704 1.041-1.186 1.841-1.186h4.41c.8 0 1.561.482 1.841 1.186z" opacity="1" data-original="#e3e7f0"></path><path fill="#FFFFFF" d="M28.19 56.508h-4.579c-.922 0-1.794-.626-1.924-1.54a1.805 1.805 0 0 1 1.785-2.066h4.56c.98 0 1.89.71 1.95 1.686a1.797 1.797 0 0 1-1.792 1.92z" opacity="1" data-original="#ffffff"></path><path fill="#E3E7F0" d="M16.412 54.7v.724h-.01c.02.98-.798 1.803-1.783 1.803H9.882c-.968 0-1.803-.808-1.784-1.803h-.01V54.7h.116c.28-.704 1.041-1.186 1.842-1.186h4.409c.8 0 1.562.482 1.841 1.186z" opacity="1" data-original="#e3e7f0"></path><path fill="#FFFFFF" d="M14.614 56.508h-4.58c-.922 0-1.794-.626-1.923-1.54a1.805 1.805 0 0 1 1.784-2.066h4.561c.979 0 1.89.71 1.95 1.686a1.797 1.797 0 0 1-1.792 1.92z" opacity="1" data-original="#ffffff"></path><path fill="#FEBC1F" d="M8.092 35.926v4.356c0 1.098.89 1.988 1.988 1.988h8.158c1.098 0 1.988-.89 1.988-1.988v-4.356c0-1.098-.89-1.989-1.988-1.989H10.08c-1.098 0-1.988.89-1.988 1.989z" opacity="1" data-original="#febc1f" class=""></path><path fill="#FFD475" d="M8.092 35.247v4.356c0 1.098.89 1.989 1.988 1.989h8.158c1.098 0 1.988-.89 1.988-1.989v-4.356c0-1.098-.89-1.989-1.988-1.989H10.08c-1.098 0-1.988.89-1.988 1.989z" opacity="1" data-original="#ffd475" class=""></path><path fill="#FEBC1F" d="M13.948 36.955v-3.697h-.945v3.697h-4.91v.944h2.686v3.693h.944v-3.693h4.253v3.693h.944v-3.693h3.306v-.944z" opacity="1" data-original="#febc1f" class=""></path><path fill="#FFFFFF" d="M56.28 40.216h-5.318c-.443 0-.861-.3-.924-.739a.867.867 0 0 1 .857-.993h5.31c.469 0 .906.341.935.81a.863.863 0 0 1-.86.922zM56.28 36.509h-9.336c-.443 0-.861-.3-.924-.74a.867.867 0 0 1 .857-.992h9.327c.47 0 .907.34.936.81a.863.863 0 0 1-.86.922zM54.86 16.32a40.292 40.292 0 0 1 5.432 9.29 40.28 40.28 0 0 1-5.431-9.29zM13.444 25.607a51.376 51.376 0 0 1 10.457-6.202 51.382 51.382 0 0 1-10.457 6.202zM40.192 60.735a51.382 51.382 0 0 1 12.157 0c-4.05.483-8.107.48-12.157 0z" opacity="1" data-original="#ffffff"></path></g></svg>