<svg width="512" height="406" viewBox="0 0 512 406" fill="none" xmlns="http://www.w3.org/2000/svg">
<path fill-rule="evenodd" clip-rule="evenodd" d="M17.999 84.0129C17.999 80.0889 20.742 76.8179 24.606 76.1349C29.9134 75.1984 35.2347 74.3423 40.568 73.5669L44 73.0669V327.618C44 330.928 45.366 334.144 47.788 336.406C50.205 338.663 53.518 339.817 56.815 339.594C76.807 338.241 96.936 338.034 116.932 339.441C132.932 340.567 148.906 342.731 164.554 346.278C186.159 351.175 207.8 358.865 226.772 370.449L229.075 371.855L226.763 376.733L224.216 375.84C199.521 367.185 173.269 362.088 147.253 359.665C129.102 357.974 110.83 357.572 92.616 358.256C70.739 359.078 48.923 361.466 27.342 365.127C24.992 365.525 22.645 364.91 20.822 363.37C18.999 361.83 17.999 359.621 17.999 357.236V84.0129ZM285.228 370.449C304.197 358.863 325.836 351.171 347.44 346.273C363.089 342.725 379.064 340.56 395.063 339.435C415.059 338.029 435.188 338.237 455.18 339.594C458.48 339.818 461.792 338.666 464.212 336.406C466.634 334.145 468 330.928 468 327.618V73.0669L471.433 73.5679C476.765 74.3449 482.087 75.1979 487.394 76.1359C491.257 76.8189 494.001 80.0899 494.001 84.0139V357.237C494.001 359.629 493.001 361.833 491.169 363.375C489.345 364.909 487.006 365.527 484.658 365.128C463.077 361.463 441.26 359.071 419.382 358.249C401.167 357.564 382.895 357.967 364.743 359.659C338.726 362.084 312.478 367.185 287.784 375.841L285.237 376.734L282.925 371.857L285.228 370.449Z" fill="#C3DD8C"/>
<path fill-rule="evenodd" clip-rule="evenodd" d="M409.821 216.208C409.867 216.864 409.784 217.522 409.576 218.145C409.367 218.768 409.038 219.344 408.607 219.84C408.176 220.336 407.651 220.742 407.063 221.034C406.475 221.327 405.835 221.501 405.179 221.546C395.548 222.219 385.968 223.408 376.708 225.087C376.412 225.144 376.111 225.171 375.81 225.167C373.44 225.167 371.328 223.479 370.9 221.066C370.397 218.348 372.207 215.747 374.916 215.249C384.699 213.488 394.571 212.258 404.487 211.567C405.809 211.477 407.113 211.915 408.113 212.785C409.113 213.655 409.727 214.886 409.821 216.208ZM409.821 122.614C409.867 123.269 409.783 123.927 409.574 124.55C409.366 125.173 409.037 125.749 408.606 126.245C408.175 126.74 407.65 127.146 407.062 127.439C406.474 127.732 405.834 127.906 405.179 127.952C382.578 129.528 361.396 133.765 342.227 140.546C341.608 140.766 340.952 140.861 340.297 140.827C339.641 140.793 338.999 140.629 338.407 140.346C337.814 140.063 337.284 139.666 336.845 139.177C336.407 138.689 336.069 138.118 335.851 137.499C335.631 136.881 335.536 136.225 335.569 135.569C335.603 134.914 335.766 134.271 336.048 133.679C336.33 133.086 336.726 132.555 337.214 132.115C337.701 131.676 338.27 131.337 338.889 131.117C358.909 124.039 380.979 119.614 404.488 117.973C405.143 117.926 405.801 118.009 406.424 118.217C407.048 118.425 407.623 118.754 408.119 119.185C408.615 119.617 409.02 120.141 409.312 120.73C409.604 121.318 409.777 121.959 409.821 122.614ZM409.821 153.812C409.867 154.467 409.783 155.125 409.574 155.748C409.366 156.371 409.037 156.947 408.606 157.443C408.175 157.938 407.65 158.344 407.062 158.637C406.474 158.93 405.834 159.104 405.179 159.15C396.578 159.746 388.012 160.765 379.511 162.202C378.864 162.312 378.201 162.293 377.561 162.147C376.921 162 376.316 161.729 375.781 161.349C375.246 160.968 374.791 160.486 374.443 159.93C374.094 159.373 373.859 158.754 373.75 158.106C373.64 157.459 373.659 156.797 373.805 156.157C373.952 155.518 374.222 154.913 374.602 154.378C374.982 153.843 375.464 153.388 376.019 153.04C376.575 152.691 377.194 152.455 377.841 152.345C386.666 150.852 395.558 149.793 404.487 149.171C405.142 149.125 405.8 149.208 406.423 149.416C407.046 149.624 407.622 149.953 408.117 150.385C408.613 150.816 409.018 151.34 409.311 151.929C409.603 152.517 409.776 153.157 409.821 153.812ZM373.111 95.8311C372.885 94.5258 373.186 93.1841 373.949 92.1011C374.712 91.0181 375.874 90.2825 377.179 90.0561C386.221 88.5066 395.336 87.4109 404.488 86.7731C405.143 86.7265 405.801 86.8097 406.424 87.0179C407.047 87.2261 407.623 87.5554 408.118 87.9866C408.614 88.4179 409.019 88.9428 409.312 89.5311C409.604 90.1195 409.777 90.7597 409.821 91.4151C409.867 92.0704 409.783 92.7283 409.574 93.3512C409.366 93.9741 409.037 94.5498 408.606 95.0455C408.175 95.5412 407.65 95.9471 407.062 96.2401C406.474 96.5331 405.834 96.7074 405.179 96.7531C396.366 97.3642 387.589 98.4175 378.881 99.9091C378.6 99.9594 378.315 99.9845 378.03 99.9841C375.641 99.9841 373.52 98.2671 373.111 95.8311ZM283.382 294.049C282.952 293.552 282.624 292.976 282.417 292.352C282.21 291.728 282.129 291.07 282.177 290.415C282.225 289.76 282.401 289.12 282.697 288.533C282.993 287.947 283.401 287.424 283.899 286.995C295.802 276.747 309.778 268.076 325.457 261.219C326.057 260.955 326.704 260.812 327.36 260.798C328.016 260.784 328.668 260.9 329.279 261.138C329.89 261.377 330.448 261.734 330.921 262.188C331.395 262.643 331.773 263.186 332.036 263.787C332.3 264.388 332.444 265.036 332.458 265.692C332.472 266.349 332.356 267.002 332.118 267.614C331.879 268.226 331.522 268.785 331.068 269.259C330.613 269.733 330.069 270.112 329.468 270.376C314.696 276.838 301.566 284.978 290.425 294.567C289.521 295.353 288.363 295.784 287.166 295.781C286.448 295.783 285.737 295.629 285.084 295.33C284.431 295.031 283.85 294.594 283.382 294.049ZM283.382 200.449C282.952 199.953 282.624 199.377 282.417 198.753C282.21 198.13 282.129 197.472 282.177 196.817C282.225 196.162 282.401 195.523 282.697 194.937C282.993 194.351 283.401 193.828 283.899 193.4C301.069 178.61 322.358 167.234 347.161 159.582C349.799 158.764 352.597 160.25 353.421 162.883C353.81 164.152 353.68 165.523 353.059 166.695C352.438 167.868 351.378 168.746 350.11 169.138C326.629 176.38 306.548 187.093 290.427 200.976C289.521 201.758 288.365 202.189 287.168 202.189C286.449 202.19 285.738 202.035 285.084 201.735C284.43 201.434 283.85 200.996 283.382 200.449ZM314.858 147.03C314.197 145.88 313.106 145.041 311.826 144.695C310.545 144.349 309.18 144.526 308.03 145.187C299.302 150.209 291.18 155.933 283.9 162.197C281.812 164.003 281.567 167.158 283.383 169.251C283.851 169.797 284.432 170.235 285.085 170.535C285.739 170.834 286.45 170.988 287.169 170.986C288.365 170.987 289.522 170.558 290.428 169.777C297.233 163.922 304.833 158.565 313.011 153.858C314.161 153.197 315.002 152.107 315.348 150.826C315.694 149.546 315.518 148.181 314.858 147.03ZM283.382 138.053C283.85 138.599 284.431 139.037 285.084 139.337C285.738 139.636 286.449 139.79 287.168 139.788C288.32 139.788 289.477 139.388 290.427 138.575C306.402 124.819 326.272 114.172 349.48 106.935C350.746 106.541 351.803 105.66 352.421 104.487C353.038 103.313 353.164 101.943 352.772 100.676C352.375 99.409 351.491 98.3512 350.315 97.7349C349.139 97.1187 347.766 96.9943 346.498 97.3891C321.978 105.036 300.919 116.346 283.899 131C283.401 131.429 282.993 131.951 282.697 132.538C282.402 133.125 282.225 133.764 282.177 134.419C282.129 135.075 282.21 135.733 282.417 136.356C282.624 136.98 282.952 137.556 283.382 138.053ZM409.821 185.01C409.727 183.688 409.114 182.457 408.114 181.587C407.114 180.717 405.81 180.279 404.488 180.368C385.729 181.68 357.549 185.626 329.77 196.988C328.543 197.491 327.566 198.459 327.052 199.68C326.538 200.902 326.529 202.278 327.028 203.506C327.276 204.115 327.641 204.669 328.103 205.136C328.565 205.603 329.115 205.975 329.72 206.23C330.326 206.484 330.976 206.617 331.633 206.62C332.29 206.623 332.942 206.497 333.55 206.248C360.107 195.389 387.157 191.603 405.178 190.348C405.833 190.303 406.473 190.128 407.061 189.835C407.649 189.542 408.174 189.137 408.605 188.641C409.036 188.145 409.366 187.569 409.574 186.946C409.783 186.323 409.867 185.665 409.821 185.01ZM350.528 226.117C350.327 225.493 350.004 224.915 349.579 224.416C349.154 223.917 348.634 223.507 348.05 223.209C347.466 222.911 346.829 222.731 346.175 222.68C345.522 222.629 344.864 222.707 344.241 222.91C320.68 230.538 300.378 241.599 283.9 255.797C281.812 257.598 281.567 260.758 283.383 262.846C283.85 263.393 284.431 263.833 285.084 264.133C285.738 264.434 286.449 264.588 287.169 264.586C288.321 264.586 289.478 264.186 290.428 263.368C305.9 250.045 325.041 239.638 347.323 232.419C348.583 232.008 349.628 231.113 350.229 229.931C350.83 228.75 350.938 227.378 350.528 226.117ZM409.821 247.407C409.913 248.731 409.475 250.037 408.605 251.038C407.735 252.04 406.502 252.655 405.179 252.749C389.039 253.868 373.421 256.399 358.767 260.259C358.352 260.369 357.926 260.425 357.497 260.428C356.393 260.426 355.32 260.058 354.447 259.383C353.573 258.707 352.947 257.762 352.667 256.694C351.957 254.027 353.56 251.286 356.227 250.585C371.478 246.569 387.717 243.935 404.487 242.769C405.809 242.678 407.113 243.115 408.114 243.985C409.114 244.854 409.728 246.085 409.821 247.407ZM287.168 233.388C286.449 233.389 285.738 233.234 285.084 232.934C284.43 232.633 283.85 232.195 283.382 231.648C281.567 229.56 281.811 226.4 283.899 224.599C288.648 220.523 293.64 216.739 298.849 213.27C299.395 212.906 300.007 212.652 300.651 212.525C301.294 212.397 301.957 212.398 302.6 212.527C303.244 212.656 303.855 212.91 304.4 213.276C304.945 213.641 305.413 214.111 305.776 214.657C306.141 215.203 306.394 215.816 306.522 216.46C306.649 217.104 306.649 217.767 306.52 218.411C306.391 219.055 306.136 219.667 305.771 220.212C305.405 220.757 304.936 221.225 304.389 221.589C299.522 224.83 294.859 228.367 290.426 232.18C289.519 232.958 288.363 233.387 287.168 233.388ZM159.228 100.675C159.626 99.4084 160.51 98.3511 161.686 97.735C162.862 97.1189 164.234 96.9941 165.502 97.3881C190.018 105.035 211.081 116.345 228.101 130.999C228.598 131.428 229.007 131.951 229.302 132.538C229.597 133.125 229.774 133.764 229.822 134.419C229.87 135.074 229.788 135.732 229.582 136.356C229.375 136.979 229.048 137.556 228.618 138.053C228.15 138.599 227.569 139.036 226.915 139.336C226.262 139.635 225.551 139.79 224.832 139.788C223.634 139.789 222.475 139.359 221.568 138.575C205.602 124.819 185.728 114.172 162.52 106.935C161.254 106.54 160.196 105.66 159.579 104.486C158.962 103.312 158.836 101.942 159.228 100.675ZM198.99 153.859C197.84 153.198 196.999 152.108 196.652 150.828C196.304 149.547 196.479 148.182 197.137 147.03C197.8 145.881 198.892 145.042 200.173 144.696C201.453 144.351 202.819 144.527 203.97 145.187C212.699 150.209 220.82 155.933 228.1 162.197C228.597 162.626 229.006 163.149 229.301 163.736C229.596 164.323 229.773 164.962 229.821 165.617C229.869 166.272 229.787 166.93 229.581 167.554C229.374 168.177 229.047 168.754 228.617 169.251C228.149 169.797 227.568 170.234 226.914 170.534C226.261 170.833 225.55 170.988 224.831 170.986C223.633 170.987 222.475 170.558 221.567 169.777C214.768 163.923 207.169 158.566 198.99 153.859ZM228.101 255.797C228.598 256.226 229.006 256.748 229.302 257.334C229.597 257.921 229.774 258.56 229.822 259.214C229.87 259.869 229.788 260.527 229.582 261.15C229.375 261.773 229.048 262.35 228.618 262.846C228.19 263.344 227.668 263.753 227.082 264.049C226.495 264.345 225.856 264.523 225.201 264.571C224.546 264.62 223.888 264.538 223.265 264.332C222.641 264.126 222.065 263.798 221.568 263.368C206.1 250.045 186.96 239.638 164.678 232.419C163.418 232.008 162.372 231.113 161.771 229.932C161.169 228.75 161.062 227.378 161.471 226.117C161.672 225.493 161.995 224.915 162.42 224.416C162.845 223.917 163.365 223.507 163.949 223.209C164.533 222.911 165.17 222.731 165.824 222.68C166.477 222.629 167.135 222.707 167.758 222.91C191.32 230.538 211.622 241.599 228.101 255.797ZM228.101 193.4C210.931 178.61 189.641 167.234 164.839 159.582C163.571 159.192 162.201 159.321 161.027 159.939C159.854 160.558 158.974 161.617 158.58 162.883C158.191 164.152 158.321 165.523 158.942 166.695C159.563 167.868 160.623 168.746 161.891 169.138C185.372 176.38 205.448 187.093 221.57 200.976C222.478 201.758 223.636 202.189 224.834 202.189C225.553 202.19 226.264 202.034 226.918 201.734C227.571 201.434 228.152 200.995 228.62 200.449C229.049 199.952 229.376 199.376 229.583 198.753C229.789 198.129 229.87 197.472 229.822 196.817C229.774 196.162 229.597 195.524 229.302 194.937C229.006 194.351 228.598 193.829 228.101 193.4ZM228.101 286.995C216.198 276.747 202.222 268.076 186.538 261.219C185.937 260.955 185.291 260.812 184.635 260.798C183.979 260.784 183.327 260.9 182.716 261.139C182.105 261.377 181.547 261.734 181.074 262.188C180.601 262.643 180.222 263.186 179.959 263.787C179.695 264.389 179.552 265.036 179.539 265.693C179.525 266.35 179.641 267.003 179.88 267.615C180.119 268.227 180.476 268.786 180.931 269.259C181.386 269.733 181.93 270.113 182.532 270.376C197.298 276.838 210.429 284.978 221.57 294.567C222.475 295.353 223.635 295.784 224.834 295.781C225.854 295.781 226.85 295.469 227.688 294.887C228.526 294.305 229.166 293.48 229.522 292.524C229.877 291.567 229.932 290.525 229.678 289.537C229.424 288.549 228.874 287.662 228.101 286.995ZM228.101 224.598C223.352 220.522 218.359 216.739 213.151 213.269C212.048 212.534 210.698 212.268 209.398 212.529C208.099 212.789 206.956 213.555 206.221 214.659C205.487 215.762 205.221 217.112 205.481 218.411C205.742 219.711 206.508 220.853 207.611 221.588C212.476 224.829 217.138 228.366 221.569 232.179C222.478 232.958 223.636 233.387 224.833 233.388C225.552 233.388 226.263 233.233 226.917 232.933C227.57 232.632 228.151 232.194 228.619 231.648C229.048 231.151 229.376 230.575 229.582 229.952C229.788 229.328 229.87 228.671 229.822 228.016C229.773 227.361 229.597 226.722 229.301 226.136C229.006 225.549 228.598 225.027 228.101 224.598ZM102.179 216.208C102.271 214.886 102.884 213.654 103.885 212.783C104.885 211.913 106.189 211.475 107.512 211.566C117.427 212.258 127.297 213.487 137.078 215.248C139.787 215.746 141.602 218.347 141.099 221.065C140.667 223.478 138.559 225.166 136.189 225.166C135.888 225.166 135.587 225.147 135.291 225.086C125.872 223.388 116.368 222.206 106.82 221.545C106.164 221.5 105.524 221.327 104.936 221.034C104.348 220.741 103.823 220.336 103.392 219.84C102.961 219.344 102.632 218.768 102.424 218.145C102.215 217.522 102.132 216.863 102.179 216.208ZM102.179 91.4151C102.271 90.0925 102.884 88.8605 103.885 87.9901C104.885 87.1196 106.189 86.6819 107.512 86.7731C116.729 87.4171 125.909 88.5231 134.821 90.0561C136.126 90.2825 137.288 91.0181 138.051 92.1011C138.814 93.1841 139.115 94.5258 138.889 95.8311C138.48 98.2671 136.359 99.9831 133.97 99.9831C133.685 99.9834 133.4 99.9583 133.119 99.9081C124.411 98.4164 115.634 97.3631 106.821 96.7521C106.166 96.7067 105.526 96.5326 104.938 96.2397C104.35 95.9469 103.825 95.5411 103.394 95.0454C102.963 94.5498 102.634 93.9741 102.425 93.3512C102.217 92.7283 102.133 92.0704 102.179 91.4151ZM102.179 247.407C102.224 246.752 102.398 246.113 102.691 245.525C102.983 244.938 103.389 244.414 103.884 243.983C104.38 243.552 104.955 243.224 105.577 243.016C106.2 242.807 106.857 242.724 107.512 242.77C124.277 243.936 140.521 246.57 155.767 250.586C158.438 251.287 160.042 254.028 159.327 256.695C159.048 257.763 158.423 258.708 157.55 259.384C156.677 260.059 155.606 260.427 154.502 260.429C154.079 260.429 153.651 260.368 153.232 260.26C138.578 256.399 122.96 253.869 106.82 252.75C105.497 252.656 104.265 252.04 103.395 251.038C102.525 250.037 102.087 248.731 102.179 247.407ZM102.179 153.812C102.272 152.49 102.886 151.259 103.886 150.388C104.885 149.518 106.19 149.08 107.512 149.17C116.499 149.8 125.467 150.868 134.162 152.344C135.468 152.567 136.631 153.298 137.398 154.379C138.164 155.459 138.47 156.799 138.249 158.105C138.14 158.752 137.904 159.372 137.555 159.928C137.207 160.484 136.752 160.966 136.217 161.346C135.682 161.727 135.077 161.998 134.437 162.145C133.798 162.291 133.135 162.31 132.488 162.201C123.987 160.764 115.421 159.746 106.82 159.149C106.165 159.104 105.525 158.929 104.937 158.636C104.349 158.344 103.825 157.938 103.394 157.442C102.963 156.946 102.634 156.371 102.425 155.748C102.217 155.125 102.133 154.467 102.179 153.812ZM102.179 122.614C102.133 123.269 102.217 123.927 102.426 124.55C102.634 125.173 102.963 125.749 103.394 126.245C103.825 126.74 104.35 127.146 104.938 127.439C105.526 127.732 106.166 127.906 106.821 127.952C129.418 129.528 150.599 133.765 169.768 140.546C170.387 140.766 171.043 140.862 171.7 140.828C172.356 140.794 172.999 140.631 173.592 140.348C174.185 140.065 174.716 139.668 175.155 139.179C175.594 138.69 175.932 138.119 176.15 137.499C176.37 136.881 176.465 136.225 176.432 135.569C176.398 134.914 176.235 134.271 175.953 133.679C175.671 133.086 175.275 132.555 174.787 132.115C174.3 131.676 173.731 131.337 173.112 131.117C153.092 124.039 131.022 119.614 107.513 117.973C106.858 117.927 106.2 118.011 105.577 118.219C104.955 118.427 104.379 118.756 103.884 119.187C103.388 119.619 102.983 120.143 102.69 120.731C102.398 121.319 102.224 121.959 102.179 122.614ZM102.179 185.01C102.272 183.688 102.886 182.457 103.886 181.586C104.885 180.716 106.19 180.278 107.512 180.368C126.271 181.68 154.45 185.626 182.23 196.988C182.838 197.236 183.391 197.602 183.857 198.063C184.324 198.525 184.695 199.075 184.949 199.68C185.203 200.285 185.336 200.935 185.339 201.591C185.342 202.248 185.215 202.898 184.967 203.506C184.72 204.115 184.355 204.669 183.894 205.136C183.432 205.604 182.883 205.975 182.277 206.23C181.672 206.485 181.022 206.618 180.365 206.621C179.708 206.624 179.057 206.497 178.449 206.248C151.888 195.389 124.837 191.603 106.821 190.348C106.166 190.302 105.526 190.128 104.938 189.835C104.35 189.542 103.825 189.136 103.394 188.641C102.963 188.145 102.634 187.569 102.426 186.946C102.217 186.323 102.133 185.665 102.179 185.01ZM491.001 357.236V84.0131C491.001 81.5391 489.299 79.5171 486.872 79.0891C481.594 78.158 476.303 77.3066 471 76.5351V327.617C471 331.779 469.269 335.776 466.26 338.598C464.75 339.996 462.97 341.07 461.03 341.756C459.09 342.441 457.031 342.724 454.978 342.586C366.509 336.585 314.511 356.078 286.792 373.008C324.019 359.958 390.568 346.108 485.16 362.168C486.651 362.427 488.099 362.036 489.237 361.077C490.38 360.119 491.001 358.759 491.001 357.236ZM26.84 362.169C121.427 346.118 187.972 359.959 225.208 373.009C197.48 356.079 145.487 336.6 57.018 342.587C54.9659 342.725 52.9072 342.442 50.9682 341.756C49.0291 341.07 47.2504 339.996 45.741 338.599C44.2443 337.188 43.0517 335.487 42.2366 333.598C41.4215 331.71 41.001 329.675 41.001 327.618V76.5361C35.6976 77.3067 30.4064 78.1582 25.129 79.0901C22.702 79.5181 21 81.5401 21 84.0141V357.237C21 358.761 21.63 360.12 22.759 361.079C23.901 362.037 25.349 362.418 26.84 362.169ZM50.998 54.1461V327.618C50.998 329.038 51.558 330.336 52.569 331.286C53.0719 331.755 53.6667 332.115 54.3158 332.343C54.9649 332.57 55.6542 332.661 56.34 332.608C144.01 326.668 197.471 345.371 227.32 362.668C180.72 317.78 109.317 314.638 86.17 314.92C82.116 314.977 78.33 313.448 75.499 310.66C72.64 307.829 70.998 303.921 70.998 299.919V48.3101C65.947 48.5071 60.807 48.7901 55.648 49.1521C53.039 49.3351 50.998 51.5311 50.998 54.1461ZM81.002 26.3941V299.918C81.002 301.24 81.571 302.599 82.53 303.549C83.471 304.48 84.67 304.936 86.057 304.918C86.932 304.909 87.858 304.899 88.836 304.899C104.877 304.899 133.757 306.479 164.259 315.8C202.159 327.369 231.307 347.219 250.997 374.839V100.069C209.956 25.6661 114.376 21.0431 85.929 21.3911C83.212 21.4281 81.002 23.6721 81.002 26.3941ZM426.069 21.3911C397.641 21.0381 302.038 25.6661 261.001 100.069V374.839C280.687 347.219 309.839 327.369 347.739 315.8C380.09 305.91 410.63 304.748 425.951 304.918C427.348 304.927 428.528 304.466 429.469 303.549C430.428 302.599 430.997 301.24 430.997 299.918V26.3941C430.998 23.6721 428.792 21.4281 426.069 21.3911ZM456.351 49.1511C451.239 48.7919 446.122 48.5112 441.001 48.3091V299.917C441.001 303.919 439.36 307.827 436.5 310.658C435.096 312.045 433.428 313.136 431.596 313.868C429.763 314.6 427.802 314.957 425.829 314.918C402.668 314.645 331.279 317.777 284.68 362.666C314.528 345.369 367.99 326.666 455.659 332.606C456.345 332.659 457.034 332.569 457.684 332.341C458.333 332.114 458.928 331.754 459.431 331.284C460.442 330.334 460.997 329.036 460.997 327.616V54.1461C460.997 51.4841 458.998 49.3391 456.351 49.1511ZM488.598 69.2371C482.748 68.2072 476.881 67.2727 471 66.4341V54.1461C471 46.2971 464.867 39.7231 457.047 39.1771C451.703 38.8022 446.354 38.5105 441.001 38.3021V26.3951C441.001 18.2311 434.361 11.5011 426.202 11.3931C409.86 11.1771 377.378 12.4931 343.48 23.6151C304.249 36.4821 274.871 58.3881 255.999 88.7961C237.131 58.3881 207.753 36.4821 168.522 23.6151C134.62 12.4931 102.152 11.1811 85.8 11.3931C77.64 11.5011 71 18.2311 71 26.3951V38.3021C65.719 38.5041 60.339 38.8011 54.949 39.1771C47.128 39.7221 41 46.2971 41 54.1461V66.4341C35.1191 67.2727 29.2524 68.2072 23.402 69.2371C19.9258 69.8452 16.7759 71.6608 14.5073 74.3639C12.2387 77.067 10.9969 80.4842 11.001 84.0131V357.236C11.001 361.685 12.939 365.87 16.31 368.715C19.682 371.569 24.131 372.769 28.509 372.026C146.45 352.006 219.179 379.33 244.979 392.008C248.529 393.748 252.268 394.627 255.998 394.627C259.732 394.627 263.471 393.748 267.021 392.008C292.82 379.33 365.549 352.006 483.49 372.026C487.868 372.769 492.317 371.57 495.689 368.715C499.061 365.87 500.999 361.684 500.999 357.236V84.0131C500.999 76.7141 495.779 70.5021 488.598 69.2371Z" fill="#54733A"/>
</svg>
