<svg xmlns:xlink="http://www.w3.org/1999/xlink" xmlns="http://www.w3.org/2000/svg" width="150" height="151" viewBox="0 0 150 151" fill="none"><g clip-path="url(#clip0_112_419)" fill="none"><path d="M150 75.6172C150 34.1958 116.421 0.617188 75 0.617188C33.5786 0.617188 0 34.1958 0 75.6172C0 117.039 33.5786 150.617 75 150.617C116.421 150.617 150 117.039 150 75.6172Z" fill="#FFFFFF" fill-opacity="0.55"></path><path d="M123 75.6172C123 49.1075 101.51 27.6172 75 27.6172C48.4903 27.6172 27 49.1075 27 75.6172C27 102.127 48.4903 123.617 75 123.617C101.51 123.617 123 102.127 123 75.6172Z" fill="black" fill-opacity="0.11"></path><g filter="url(#filter0_i_112_419)" fill="none"><path d="M95 68.689C100.333 71.7682 100.333 79.4662 95 82.5454L71 96.4018C65.6667 99.481 59 95.632 59 89.4736V61.7608C59 55.6024 65.6667 51.7534 71 54.8326L95 68.689Z" fill="#0059FF"></path><path d="M95 68.689C100.333 71.7682 100.333 79.4662 95 82.5454L71 96.4018C65.6667 99.481 59 95.632 59 89.4736V61.7608C59 55.6024 65.6667 51.7534 71 54.8326L95 68.689Z" fill="url(&quot;#paint0_linear_112_419&quot;)"></path></g><path d="M95.25 82.9783C100.917 79.7067 100.917 71.5275 95.25 68.2559L71.25 54.3995C65.5833 51.1278 58.5 55.2174 58.5 61.7607V89.4735C58.5 96.0168 65.5833 100.106 71.25 96.8347L95.25 82.9783Z" stroke="#0059FF" fill="none"></path><path d="M68.1794 21.6172L64.5474 10.3212H67.0434L69.6994 19.0092H68.7234L71.3154 10.3212H73.2834L75.8754 19.0092H74.9154L77.5554 10.3212H80.0354L76.4034 21.6172H74.4354L71.8274 12.9292H72.7554L70.1474 21.6172H68.1794Z" fill="#454A51"></path><path d="M82.7603 22.7185L89.7246 12.7601L91.9353 13.2841L93.6428 25.2977L91.0583 24.6852L89.9201 14.7797L90.8075 14.99L85.298 23.32L82.7603 22.7185ZM85.708 21.3124L86.1803 19.3196L92.1743 20.7402L91.702 22.733L85.708 21.3124Z" fill="#454A51"></path><path d="M100.092 28.2144L105.09 18.2629L107.335 19.3903L102.337 29.3418L100.092 28.2144ZM101.018 18.4918L102.002 16.533L110.566 20.8343L109.583 22.7931L101.018 18.4918Z" fill="#454A51"></path><path d="M111.504 36.4121C110.859 35.8704 110.351 35.2562 109.98 34.5693C109.625 33.8811 109.41 33.1579 109.336 32.3997C109.27 31.6483 109.349 30.907 109.573 30.1757C109.804 29.4363 110.183 28.752 110.711 28.1228C111.239 27.4936 111.843 27.0054 112.525 26.6581C113.213 26.3026 113.929 26.096 114.674 26.0385C115.418 25.9809 116.157 26.0715 116.889 26.3103C117.637 26.5477 118.334 26.9373 118.979 27.4789C119.666 28.0548 120.182 28.676 120.528 29.3422C120.882 30.0154 121.098 30.712 121.176 31.432L118.799 31.6513C118.776 31.2142 118.659 30.789 118.449 30.3759C118.247 29.9696 117.933 29.5882 117.508 29.2316C117.133 28.9162 116.73 28.6902 116.302 28.5535C115.889 28.4156 115.468 28.3691 115.041 28.414C114.621 28.4659 114.205 28.6045 113.794 28.8298C113.39 29.062 113.02 29.3782 112.684 29.7786C112.341 30.1872 112.091 30.6104 111.932 31.0482C111.782 31.493 111.717 31.9264 111.739 32.3485C111.769 32.7774 111.885 33.1875 112.085 33.5788C112.294 33.9769 112.587 34.3337 112.963 34.6491C113.404 35.0193 113.846 35.2721 114.29 35.4075C114.733 35.5428 115.176 35.5873 115.619 35.541L115.828 37.9304C115.089 37.9648 114.357 37.866 113.633 37.6341C112.916 37.4091 112.207 37.0017 111.504 36.4121Z" fill="#454A51"></path><path d="M118.086 42.813L127.147 36.0675L128.647 38.0824L119.587 44.8279L118.086 42.813ZM122.262 48.4214L131.323 41.6759L132.832 43.7037L123.771 50.4492L122.262 48.4214ZM122.771 41.2008L124.516 39.9014L128.29 44.9708L126.545 46.2702L122.771 41.2008Z" fill="#454A51"></path><path d="M128.255 67.734L138.624 61.4866L139.091 64.1337L130.669 68.9819L130.477 67.8946L140.058 69.6171L140.519 72.2328L128.63 69.8612L128.255 67.734Z" fill="#454A51"></path><path d="M128.752 78.6216L140.029 79.2784L139.883 81.7862L128.606 81.1294L128.752 78.6216Z" fill="#454A51"></path><path d="M126.909 90.0163L129.024 90.6496L128.221 93.332C128.025 93.9859 127.982 94.5964 128.09 95.1634C128.209 95.7334 128.479 96.2262 128.9 96.6418C129.322 97.0574 129.874 97.3677 130.559 97.5726C131.244 97.7776 131.873 97.8156 132.446 97.6865C133.016 97.5677 133.507 97.3028 133.92 96.8918C134.329 96.4911 134.632 95.9637 134.827 95.3097L135.653 92.5507L137.753 93.1794L136.918 95.9691C136.673 96.7866 136.316 97.4979 135.845 98.103C135.382 98.7213 134.828 99.2126 134.185 99.5767C133.548 99.954 132.857 100.181 132.11 100.258C131.37 100.349 130.602 100.275 129.805 100.036C129.018 99.8003 128.335 99.44 127.757 98.955C127.175 98.4803 126.721 97.9156 126.393 97.2608C126.066 96.6061 125.874 95.8916 125.816 95.1172C125.755 94.353 125.846 93.5673 126.087 92.76L126.909 90.0163ZM127.395 88.3916L138.217 91.6313L137.496 94.0378L126.675 90.798L127.395 88.3916Z" fill="#454A51"></path><path d="M122.578 100.934L132.361 106.582L131.105 108.758L121.322 103.11L122.578 100.934ZM121.618 102.597L123.503 103.685L120.407 109.047L118.522 107.959L121.618 102.597ZM125.706 104.957L127.521 106.005L124.705 110.882L122.89 109.834L125.706 104.957ZM129.53 107.165L131.401 108.245L128.345 113.538L126.474 112.458L129.53 107.165Z" fill="#454A51"></path><path d="M112.543 114.01C113.129 113.39 113.779 112.918 114.494 112.595C115.202 112.28 115.936 112.108 116.698 112.079C117.459 112.049 118.198 112.167 118.915 112.433C119.64 112.706 120.301 113.124 120.898 113.688C121.504 114.259 121.96 114.895 122.267 115.595C122.574 116.295 122.735 117.019 122.749 117.765C122.771 118.519 122.641 119.255 122.36 119.973C122.08 120.705 121.647 121.382 121.061 122.002C120.483 122.615 119.84 123.079 119.132 123.394C118.425 123.724 117.694 123.9 116.94 123.922C116.187 123.959 115.448 123.841 114.723 123.568C114.006 123.302 113.345 122.883 112.74 122.312C112.142 121.749 111.686 121.113 111.371 120.405C111.064 119.705 110.9 118.978 110.878 118.224C110.864 117.477 110.997 116.738 111.277 116.005C111.55 115.28 111.972 114.616 112.543 114.01ZM114.23 115.557C113.768 116.046 113.474 116.575 113.348 117.145C113.214 117.722 113.245 118.295 113.443 118.862C113.648 119.437 114.007 119.967 114.519 120.45C114.907 120.816 115.311 121.087 115.731 121.263C116.159 121.447 116.588 121.536 117.018 121.531C117.456 121.534 117.876 121.439 118.277 121.246C118.68 121.068 119.053 120.797 119.397 120.432C119.858 119.943 120.156 119.41 120.29 118.833C120.424 118.271 120.393 117.706 120.195 117.138C120.005 116.578 119.65 116.052 119.131 115.562C118.743 115.196 118.335 114.921 117.907 114.737C117.479 114.553 117.05 114.456 116.619 114.446C116.189 114.451 115.77 114.547 115.36 114.732C114.95 114.917 114.574 115.193 114.23 115.557Z" fill="#454A51"></path><path d="M99.4271 129.215C99.9533 129.023 100.548 129.3 100.739 129.827C100.931 130.353 100.654 130.948 100.127 131.139C99.6013 131.331 99.0066 131.053 98.8151 130.527C98.6235 130.001 98.9009 129.406 99.4271 129.215Z" fill="#454A51"></path><path d="M84.0052 129.836L86.3013 141.478L83.8222 141.188L82.1927 132.25L83.1621 132.363L79.5791 140.692L77.6244 140.463L76.0585 131.533L77.012 131.645L73.3813 139.967L70.918 139.679L75.8369 128.882L77.7915 129.11L79.3733 138.042L78.4516 137.934L82.0505 129.608L84.0052 129.836Z" fill="#454A51"></path><path d="M63.1848 127.597L55.1116 136.68L52.9766 135.902L52.6753 123.772L55.1711 124.68L55.1518 134.651L54.2948 134.339L60.7341 126.705L63.1848 127.597ZM60.0938 128.651L59.3934 130.576L53.6048 128.469L54.3053 126.545L60.0938 128.651Z" fill="#454A51"></path><path d="M44.982 120.03L38.8627 129.334L36.7639 127.953L42.8833 118.649L44.982 120.03ZM42.9336 129.579L41.7291 131.41L33.7217 126.144L34.9263 124.312L42.9336 129.579Z" fill="#454A51"></path><path d="M34.6063 110.563C35.1846 111.176 35.6179 111.845 35.9061 112.57C36.1793 113.295 36.3086 114.038 36.294 114.8C36.272 115.554 36.1075 116.281 35.8004 116.982C35.4855 117.689 35.0294 118.325 34.432 118.888C33.8346 119.452 33.1773 119.867 32.4603 120.133C31.7355 120.406 31 120.528 30.2539 120.499C29.5077 120.469 28.7847 120.294 28.0847 119.971C27.3697 119.649 26.7231 119.181 26.1448 118.568C25.53 117.916 25.0894 117.24 24.8231 116.538C24.5494 115.828 24.4156 115.111 24.4216 114.387L26.8081 114.445C26.7803 114.882 26.8468 115.318 27.0077 115.752C27.1613 116.179 27.4284 116.595 27.8091 116.998C28.1458 117.355 28.5189 117.626 28.9286 117.812C29.3231 117.997 29.7353 118.092 30.1653 118.097C30.5879 118.094 31.0169 118.004 31.4521 117.828C31.88 117.645 32.284 117.373 32.6642 117.015C33.0521 116.649 33.3503 116.258 33.5586 115.841C33.7596 115.417 33.8737 114.994 33.9011 114.572C33.9211 114.142 33.8542 113.722 33.7001 113.31C33.5388 112.89 33.2898 112.502 32.9531 112.145C32.5578 111.726 32.1478 111.423 31.7231 111.238C31.2984 111.052 30.8635 110.956 30.4185 110.951L30.4883 108.553C31.2262 108.605 31.9415 108.788 32.6341 109.102C33.3194 109.409 33.9768 109.896 34.6063 110.563Z" fill="#454A51"></path><path d="M29.4078 103.358L19.6252 109.006L18.3692 106.831L28.1518 101.183L29.4078 103.358ZM25.9118 97.3033L16.1292 102.951L14.8652 100.762L24.6478 95.114L25.9118 97.3033ZM24.5682 104.416L22.6837 105.504L19.5237 100.031L21.4082 98.9428L24.5682 104.416Z" fill="#454A51"></path><path d="M21.6042 77.5134L10.5803 82.5148L10.424 79.8313L19.352 75.9937L19.4162 77.0959L10.1003 74.2728L9.9458 71.6213L21.4786 75.357L21.6042 77.5134Z" fill="#454A51"></path><path d="M22.3685 66.6323L11.2441 64.6708L11.6803 62.197L22.8047 64.1585L22.3685 66.6323Z" fill="#454A51"></path><path d="M25.523 55.5341L23.4955 54.6595L24.6046 52.0885C24.8749 51.4617 24.9891 50.8604 24.947 50.2847C24.8952 49.7047 24.6842 49.1839 24.3141 48.7222C23.9441 48.2605 23.4309 47.8882 22.7747 47.6051C22.1185 47.322 21.4983 47.2113 20.9141 47.273C20.3341 47.3248 19.8154 47.5309 19.358 47.8912C18.9047 48.2417 18.5429 48.7303 18.2725 49.3572L17.1318 52.0016L15.1191 51.1334L16.2725 48.4596C16.6105 47.676 17.0483 47.0111 17.586 46.4647C18.1182 45.9043 18.7249 45.4806 19.4063 45.1937C20.0821 44.8928 20.7954 44.7474 21.5461 44.7576C22.2912 44.7537 23.0457 44.9166 23.8097 45.2461C24.5639 45.5714 25.2001 46.0085 25.7184 46.5574C26.241 47.0964 26.6268 47.7101 26.8759 48.3984C27.125 49.0867 27.2332 49.8187 27.2006 50.5946C27.1722 51.3607 26.9911 52.1306 26.6573 52.9043L25.523 55.5341ZM24.8512 57.0914L14.479 52.6173L15.474 50.3107L25.8462 54.7848L24.8512 57.0914Z" fill="#454A51"></path><path d="M31.094 45.2004L22.0332 38.4549L23.5333 36.4399L32.5941 43.1854L31.094 45.2004ZM32.2405 43.6603L30.4951 42.3609L34.1927 37.3941L35.9381 38.6935L32.2405 43.6603ZM28.4545 40.8417L26.7733 39.5901L30.1365 35.0725L31.8177 36.3241L28.4545 40.8417ZM24.9123 38.2047L23.1797 36.9148L26.8296 32.0122L28.5622 33.3021L24.9123 38.2047Z" fill="#454A51"></path><path d="M42.5738 33.3644C41.9201 33.9129 41.2194 34.3059 40.4718 34.5433C39.7324 34.7739 38.9829 34.8598 38.2233 34.8009C37.4638 34.742 36.7433 34.5389 36.062 34.1916C35.3739 33.8361 34.7658 33.3438 34.2379 32.7146C33.7031 32.0772 33.3238 31.3929 33.1001 30.6616C32.8763 29.9304 32.8008 29.1931 32.8734 28.4499C32.9391 27.6985 33.1531 26.9829 33.5155 26.3029C33.8791 25.6078 34.3878 24.9861 35.0415 24.4376C35.687 23.8959 36.3795 23.5098 37.119 23.2792C37.8597 23.0336 38.6058 22.9436 39.3572 23.0094C40.1099 23.0601 40.8303 23.2632 41.5185 23.6187C42.1998 23.966 42.8078 24.4583 43.3426 25.0957C43.8706 25.7248 44.2498 26.4092 44.4804 27.1486C44.7041 27.8799 44.7831 28.6212 44.7174 29.3726C44.6448 30.1158 44.4267 30.8349 44.063 31.5299C43.7075 32.2181 43.2111 32.8296 42.5738 33.3644ZM41.0786 31.6322C41.5933 31.2003 41.9468 30.7088 42.1388 30.1578C42.3391 29.5999 42.374 29.0275 42.2436 28.4407C42.1064 27.8457 41.8115 27.2785 41.359 26.7392C41.0162 26.3307 40.6464 26.0144 40.2495 25.7904C39.8459 25.5582 39.4302 25.4196 39.0026 25.3747C38.5681 25.3215 38.1401 25.3673 37.7186 25.5122C37.2984 25.642 36.8962 25.868 36.5122 26.1903C35.9974 26.6222 35.6399 27.1171 35.4397 27.675C35.2408 28.2179 35.2065 28.7828 35.3368 29.3696C35.4604 29.9482 35.7518 30.5113 36.2112 31.0588C36.554 31.4673 36.9273 31.7877 37.3309 32.0199C37.7346 32.252 38.1496 32.3981 38.5759 32.4581C39.0036 32.5031 39.4316 32.4573 39.8599 32.3206C40.2883 32.184 40.6945 31.9545 41.0786 31.6322Z" fill="#454A51"></path><path d="M53.7987 19.9393C53.2538 20.0684 52.6953 19.7239 52.5662 19.179C52.4371 18.6341 52.7815 18.0756 53.3264 17.9465C53.8713 17.8173 54.4298 18.1618 54.559 18.7067C54.6881 19.2516 54.3437 19.8101 53.7987 19.9393Z" fill="#454A51"></path></g><defs><filter id="filter0_i_112_419" x="59" y="53.7489" width="39.9995" height="45.7367" filterUnits="userSpaceOnUse" color-interpolation-filters="sRGB"><feFlood flood-opacity="0" result="BackgroundImageFix"></feFlood><feBlend mode="normal" in="SourceGraphic" in2="BackgroundImageFix" result="shape"></feBlend><feColorMatrix in="SourceAlpha" type="matrix" values="0 0 0 0 0 0 0 0 0 0 0 0 0 0 0 0 0 0 127 0" result="hardAlpha"></feColorMatrix><feOffset dy="2"></feOffset><feGaussianBlur stdDeviation="1.5"></feGaussianBlur><feComposite in2="hardAlpha" operator="arithmetic" k2="-1" k3="1"></feComposite><feColorMatrix type="matrix" values="0 0 0 0 0.999537 0 0 0 0 0.999537 0 0 0 0 0.999537 0 0 0 0.72 0"></feColorMatrix><feBlend mode="normal" in2="shape" result="effect1_innerShadow_112_419"></feBlend></filter><linearGradient id="paint0_linear_112_419" x1="107" y1="75.6172" x2="43" y2="75.6172" gradientUnits="userSpaceOnUse"><stop offset="0.397142" stop-color="#0059FF"></stop><stop offset="1" stop-color="#082982"></stop></linearGradient><clipPath id="clip0_112_419"><rect width="150" height="150" fill="white" transform="translate(0 0.617188)"></rect></clipPath><linearGradient id="paint0_linear_112_419" x1="107" y1="75.6172" x2="43" y2="75.6172" gradientUnits="userSpaceOnUse"><stop offset="0.397142" stop-color="#0059FF"></stop><stop offset="1" stop-color="#082982"></stop></linearGradient></defs></svg>