<svg xmlns="http://www.w3.org/2000/svg" version="1.1" xmlns:xlink="http://www.w3.org/1999/xlink" width="512" height="512" x="0" y="0" viewBox="0 0 120 120" style="enable-background:new 0 0 512 512" xml:space="preserve" class=""><g><path fill="#AFF2B6" d="M70.398 100.336a5.701 5.701 0 0 1-5.701 5.701h-45.02a5.701 5.701 0 0 1-5.702-5.701z" opacity="1" data-original="#aff2b6"></path><path fill="#0F0F0F" d="M64.696 106.788h-45.02a6.459 6.459 0 0 1-6.452-6.453.75.75 0 0 1 .75-.75h56.424a.75.75 0 0 1 .75.75 6.46 6.46 0 0 1-6.452 6.453zm-49.915-5.703a4.959 4.959 0 0 0 4.895 4.203h45.02a4.96 4.96 0 0 0 4.896-4.203z" opacity="1" data-original="#0f0f0f" class=""></path><path fill="#AFF2B6" d="M96.414 100.336a5.701 5.701 0 0 1-5.701 5.701H66.07a5.701 5.701 0 0 1-5.701-5.701z" opacity="1" data-original="#aff2b6"></path><path fill="#0F0F0F" d="M90.713 106.788H66.07a6.459 6.459 0 0 1-6.451-6.453.75.75 0 0 1 .75-.75h36.045a.75.75 0 0 1 .75.75 6.459 6.459 0 0 1-6.451 6.453zm-29.537-5.703a4.959 4.959 0 0 0 4.894 4.203h24.643a4.959 4.959 0 0 0 4.894-4.203z" opacity="1" data-original="#0f0f0f" class=""></path><path fill="#FFFFFF" d="m109.956 64.5-13.631 35.84h-3.879l13.632-35.84c.68-1.785-.637-3.702-2.545-3.702h3.878c1.909 0 3.225 1.917 2.545 3.702z" opacity="1" data-original="#ffffff"></path><path fill="#0F0F0F" d="M96.325 101.09h-3.879a.748.748 0 0 1-.701-1.017l13.632-35.84a1.955 1.955 0 0 0-.22-1.83 1.946 1.946 0 0 0-1.624-.855.75.75 0 0 1 0-1.5h3.878a3.481 3.481 0 0 1 3.246 4.718l-13.63 35.84a.75.75 0 0 1-.702.483zm-2.79-1.5h2.272l13.448-35.357a1.955 1.955 0 0 0-.22-1.83 1.946 1.946 0 0 0-1.624-.855h-1.021l.001.003c.65.944.795 2.146.388 3.215z" opacity="1" data-original="#0f0f0f" class=""></path><path fill="#FFFFFF" d="M45.106 63.443 31.07 100.34h61.375l13.635-35.84a2.728 2.728 0 0 0-2.55-3.697H48.938a4.099 4.099 0 0 0-3.83 2.641z" opacity="1" data-original="#ffffff"></path><path fill="#DDDDDD" d="m106.08 64.5-13.64 35.839H31.07l1.65-4.33c4.98 1.07 10.27 1.64 15.74 1.64 29.29 0 53.16-16.37 54.28-36.85h.79c1.91 0 3.23 1.92 2.55 3.7z" opacity="1" data-original="#dddddd"></path><path fill="#0F0F0F" d="M92.443 101.09H31.07a.748.748 0 0 1-.701-1.017l14.037-36.897a4.876 4.876 0 0 1 4.532-3.124h54.592a3.478 3.478 0 0 1 3.251 4.714l-13.636 35.84a.75.75 0 0 1-.7.483zm-60.286-1.5h59.769l13.452-35.357a1.953 1.953 0 0 0-.22-1.826 1.951 1.951 0 0 0-1.629-.855H48.937c-1.381 0-2.64.867-3.13 2.157zm12.95-36.147h.01z" opacity="1" data-original="#0f0f0f" class=""></path><path fill="#FFD9B0" d="M28.297 65.477H48.61c.77-3.992 2.66-7.712 5.698-10.466 6.044-5.477 9.23-14.06 7.097-23.155-2.053-8.746-9.282-15.705-18.1-17.43-15.158-2.969-28.44 8.512-28.44 23.09 0 6.77 2.865 12.887 7.46 17.2 3.092 2.902 5.14 6.673 5.972 10.76z" opacity="1" data-original="#ffd9b0"></path><path fill="#EDB57E" d="M50.74 59.549a20.04 20.04 0 0 0-2.13 5.93H28.3c-.84-4.09-2.88-7.86-5.98-10.76-4.59-4.32-7.46-10.43-7.46-17.2 0-2.95.54-5.78 1.55-8.38 3.02 16.62 17.09 29.39 34.33 30.41z" opacity="1" data-original="#edb57e"></path><path fill="#0F0F0F" d="M9.88 39.192a.75.75 0 0 1-.75-.724c-.01-.317-.015-.635-.015-.952a.75.75 0 0 1 1.5 0c0 .3.005.6.016.9a.751.751 0 0 1-.724.776h-.026zM16.032 55.979a.748.748 0 0 1-.59-.285 29.672 29.672 0 0 1-5.614-11.787.75.75 0 0 1 1.463-.33 28.18 28.18 0 0 0 5.329 11.187.75.75 0 0 1-.588 1.215zM48.61 66.227H28.298a.75.75 0 0 1-.736-.6c-.818-4.018-2.806-7.601-5.75-10.364-4.891-4.592-7.697-11.06-7.697-17.748 0-7.278 3.233-14.112 8.867-18.752 5.664-4.662 13.122-6.512 20.468-5.074 9.066 1.775 16.576 9.008 18.686 17.996 2.088 8.905-.65 17.833-7.325 23.882-2.795 2.533-4.684 6.009-5.464 10.053a.75.75 0 0 1-.737.607zm-19.709-1.5H48c.91-4.105 2.91-7.647 5.804-10.271 6.265-5.678 8.834-14.062 6.87-22.43-1.976-8.423-9.014-15.2-17.513-16.864-6.903-1.353-13.91.383-19.226 4.76-5.287 4.353-8.32 10.765-8.32 17.593 0 6.367 2.566 12.281 7.224 16.654 3.023 2.838 5.111 6.478 6.062 10.558z" opacity="1" data-original="#0f0f0f" class=""></path><path fill="#DABCBC" d="M52.974 68.55a3.074 3.074 0 0 1-3.074 3.075H27.033a3.074 3.074 0 1 1 0-6.148H49.9a3.074 3.074 0 0 1 3.074 3.074z" opacity="1" data-original="#dabcbc"></path><path fill="#BC9595" d="M52.97 68.549c0 .22-.02.43-.06.63a3.085 3.085 0 0 0-2.73-1.66H27.31c-.85 0-1.62.35-2.17.9-.42.42-.71.95-.84 1.55-.22-.43-.34-.91-.34-1.42 0-.85.34-1.62.9-2.17.55-.56 1.32-.9 2.17-.9H49.9c1.7 0 3.07 1.37 3.07 3.07z" opacity="1" data-original="#bc9595"></path><path fill="#DABCBC" d="M49.925 74.14a2.515 2.515 0 0 1-2.515 2.515H29.523a2.515 2.515 0 1 1 0-5.03H47.41a2.515 2.515 0 0 1 2.515 2.515z" opacity="1" data-original="#dabcbc"></path><path fill="#BC9595" d="M49.92 74.069c-.44-.42-1.05-.67-1.7-.67H30.34c-.69 0-1.33.28-1.78.74-.46.45-.74 1.09-.74 1.78v.07c-.5-.46-.81-1.12-.81-1.85 0-.69.28-1.32.73-1.78.46-.45 1.09-.73 1.78-.73h17.89c1.37 0 2.47 1.08 2.51 2.44z" opacity="1" data-original="#bc9595"></path><path fill="#0F0F0F" d="M49.9 72.375H27.032c-2.108 0-3.824-1.716-3.824-3.825s1.716-3.823 3.824-3.823H49.9c2.109 0 3.825 1.715 3.825 3.823s-1.716 3.825-3.825 3.825zm-22.867-6.148c-1.281 0-2.324 1.042-2.324 2.323s1.043 2.325 2.324 2.325H49.9c1.282 0 2.325-1.043 2.325-2.325s-1.043-2.323-2.325-2.323z" opacity="1" data-original="#0f0f0f" class=""></path><path fill="#0F0F0F" d="M47.41 77.406H29.523c-1.8 0-3.265-1.465-3.265-3.266s1.465-3.265 3.265-3.265H47.41c1.8 0 3.265 1.464 3.265 3.265s-1.465 3.266-3.265 3.266zm-17.887-5.031c-.973 0-1.765.792-1.765 1.765s.792 1.766 1.765 1.766H47.41c.973 0 1.765-.792 1.765-1.766s-.792-1.765-1.765-1.765z" opacity="1" data-original="#0f0f0f" class=""></path><path fill="#5B5476" d="m44.509 76.656-1.592 3.368a1.865 1.865 0 0 1-1.686 1.068h-5.533a1.865 1.865 0 0 1-1.686-1.068l-1.591-3.368z" opacity="1" data-original="#5b5476"></path><path fill="#0F0F0F" d="M41.231 81.842h-5.533a2.626 2.626 0 0 1-2.364-1.498l-1.591-3.367a.748.748 0 0 1 .678-1.07h12.088a.751.751 0 0 1 .677 1.07l-1.591 3.367a2.623 2.623 0 0 1-2.364 1.498zm-7.627-4.435 1.085 2.297c.184.387.58.638 1.01.638h5.532c.429 0 .825-.25 1.007-.638l1.086-2.297zM35.5 47.72h-4.54a5.285 5.285 0 0 1-5.28-5.28c0-1.414.553-2.738 1.557-3.73a5.266 5.266 0 0 1 3.723-1.548 5.288 5.288 0 0 1 5.29 5.279v4.53a.75.75 0 0 1-.75.75zm-4.528-9.058a3.767 3.767 0 0 0-2.674 1.109 3.72 3.72 0 0 0-1.117 2.67 3.783 3.783 0 0 0 3.779 3.78h3.79v-3.78a3.783 3.783 0 0 0-3.778-3.78zM45.973 47.72h-4.54a.75.75 0 0 1-.75-.75v-4.53a5.285 5.285 0 0 1 5.279-5.278c1.406 0 2.765.567 3.741 1.556a5.19 5.19 0 0 1 1.549 3.723 5.285 5.285 0 0 1-5.28 5.28zm-3.79-1.5h3.79a3.783 3.783 0 0 0 3.779-3.78 3.706 3.706 0 0 0-1.11-2.661 3.766 3.766 0 0 0-2.67-1.117 3.786 3.786 0 0 0-3.79 3.779z" opacity="1" data-original="#0f0f0f" class=""></path><path fill="#0F0F0F" d="M41.433 66.227H35.5a.75.75 0 0 1-.75-.75V46.968a.75.75 0 0 1 .75-.75h5.934a.75.75 0 0 1 .75.75v18.51a.75.75 0 0 1-.75.75zm-5.184-1.5h4.434V47.718H36.25z" opacity="1" data-original="#0f0f0f" class=""></path><path fill="#FF84A0" d="M81.824 77.604c-1.558 5.842-7.51 10.572-13.289 10.572-5.78 0-9.196-4.73-7.638-10.572 1.559-5.841 7.502-10.583 13.281-10.583 5.78 0 9.205 4.742 7.646 10.583z" opacity="1" data-original="#ff84a0"></path><path fill="#F76189" d="M81.82 77.609c-1.55 5.84-7.51 10.57-13.29 10.57-3.38 0-5.95-1.62-7.19-4.13 1.2.68 2.64 1.06 4.27 1.06 5.78 0 11.73-4.73 13.29-10.57.65-2.43.43-4.67-.46-6.46 3.05 1.7 4.5 5.33 3.38 9.53z" opacity="1" data-original="#f76189"></path><path fill="#0F0F0F" d="M68.535 88.925c-2.944 0-5.445-1.143-7.04-3.22-1.692-2.203-2.162-5.148-1.322-8.294 1.638-6.143 7.92-11.14 14.005-11.14 2.944 0 5.446 1.146 7.045 3.226 1.694 2.207 2.166 5.154 1.326 8.3-1.636 6.136-7.923 11.128-14.014 11.128zm5.643-21.154c-5.449 0-11.081 4.498-12.556 10.026-.717 2.686-.339 5.17 1.062 6.995 1.305 1.698 3.383 2.633 5.851 2.633 5.456 0 11.092-4.492 12.564-10.014.717-2.686.338-5.172-1.066-7-1.308-1.703-3.388-2.64-5.855-2.64z" opacity="1" data-original="#0f0f0f" class=""></path><path fill="#FFFFFF" d="m73.776 78.775-3.85 2.557c-1.183.785-2.436.085-2.1-1.173l1.366-5.12c.336-1.26 1.964-1.96 2.727-1.173l2.484 2.563c.583.602.278 1.746-.627 2.346z" opacity="1" data-original="#ffffff"></path><path fill="#0F0F0F" d="M68.912 82.413c-.417 0-.814-.119-1.146-.357-.632-.454-.887-1.256-.665-2.09l1.366-5.12c.255-.953 1.048-1.731 2.02-1.984.76-.197 1.482-.023 1.97.482l2.484 2.564c.385.396.562.94.497 1.534-.082.762-.547 1.493-1.247 1.958l-3.85 2.558a2.606 2.606 0 0 1-1.429.455zm2.174-8.13a.916.916 0 0 0-.222.031c-.364.095-.815.422-.948.918l-1.365 5.12c-.043.161-.063.376.09.485.16.117.493.12.87-.13l3.85-2.557c.322-.214.552-.555.586-.87.01-.1.005-.238-.082-.33l-2.484-2.563c-.078-.08-.19-.103-.295-.103zM89.148 94.69h-46.3a.75.75 0 0 1 0-1.5h46.3a.75.75 0 0 1 0 1.5z" opacity="1" data-original="#0f0f0f" class=""></path><path fill="#FFFFFF" d="M53.57 93.77c0 1.17-.94 2.11-2.1 2.11a2.104 2.104 0 1 1 0-4.21c1.16 0 2.1.94 2.1 2.1z" opacity="1" data-original="#ffffff"></path><path fill="#0F0F0F" d="M51.47 96.63a2.863 2.863 0 0 1-2.86-2.86 2.858 2.858 0 0 1 2.86-2.85 2.853 2.853 0 0 1 2.85 2.85 2.857 2.857 0 0 1-2.85 2.86zm0-4.21c-.75 0-1.36.605-1.36 1.35 0 .75.61 1.36 1.36 1.36a1.356 1.356 0 0 0 0-2.71zM104.97 56.507H78.978a.75.75 0 0 1 0-1.5h25.992a.75.75 0 0 1 0 1.5zM73.571 56.507H71.77a.75.75 0 0 1 0-1.5h1.802a.75.75 0 0 1 0 1.5z" opacity="1" data-original="#0f0f0f" class=""></path><path fill="#AFF2B6" d="M90.357 37.222a8.216 8.216 0 0 0-6.37 6.377.169.169 0 0 1-.332 0 8.099 8.099 0 0 0-2.237-4.14 8.101 8.101 0 0 0-4.132-2.237.169.169 0 0 1 0-.333 8.156 8.156 0 0 0 4.14-2.237 8.144 8.144 0 0 0 2.229-4.14c.04-.19.293-.19.333 0 .325 1.602 1.118 3.03 2.228 4.14s2.539 1.912 4.14 2.237c.191.04.191.293 0 .333z" opacity="1" data-original="#aff2b6"></path><path fill="#7FD685" d="M90.36 37.218a8.212 8.212 0 0 0-6.374 6.384.17.17 0 0 1-.334 0 8.05 8.05 0 0 0-2.07-3.98 5.466 5.466 0 0 0 4.475-5.154c.043.064.108.13.162.183a8.12 8.12 0 0 0 4.14 2.233c.184.043.184.301 0 .334z" opacity="1" data-original="#7fd685" class=""></path><path fill="#0F0F0F" d="M83.821 44.492a.917.917 0 0 1-.901-.739 7.337 7.337 0 0 0-2.03-3.762 7.328 7.328 0 0 0-3.753-2.033.919.919 0 0 1-.001-1.803 7.39 7.39 0 0 0 3.76-2.033 7.379 7.379 0 0 0 2.023-3.76.919.919 0 0 1 1.804-.004 7.383 7.383 0 0 0 2.024 3.764 7.383 7.383 0 0 0 3.759 2.032c.437.09.742.46.743.9s-.303.81-.738.903h-.003a7.437 7.437 0 0 0-5.785 5.793.917.917 0 0 1-.902.742zm-4.595-7.437a8.868 8.868 0 0 1 2.724 1.875 8.846 8.846 0 0 1 1.872 2.727 8.935 8.935 0 0 1 4.595-4.6 8.97 8.97 0 0 1-2.73-1.875 8.907 8.907 0 0 1-1.866-2.725 8.896 8.896 0 0 1-1.865 2.725 8.962 8.962 0 0 1-2.73 1.873zm11.13.167h.01z" opacity="1" data-original="#0f0f0f" class=""></path><path fill="#C3C9FB" d="M23.222 86.06a4.383 4.383 0 1 1-8.767 0 4.383 4.383 0 0 1 4.388-4.38 4.381 4.381 0 0 1 4.38 4.38z" opacity="1" data-original="#c3c9fb"></path><path fill="#8693E2" d="M23.223 86.058a4.39 4.39 0 0 1-4.38 4.39 4.403 4.403 0 0 1-4.13-2.9 4.391 4.391 0 0 0 6.428-5.207 4.366 4.366 0 0 1 2.082 3.717z" opacity="1" data-original="#8693e2"></path><path fill="#0F0F0F" d="M18.843 91.198a5.143 5.143 0 0 1-5.138-5.138 5.14 5.14 0 0 1 5.138-5.13c2.829 0 5.13 2.301 5.13 5.13a5.14 5.14 0 0 1-5.13 5.138zm0-8.768a3.638 3.638 0 0 0-3.638 3.63 3.642 3.642 0 0 0 3.638 3.638 3.633 3.633 0 0 0 0-7.268z" opacity="1" data-original="#0f0f0f" class=""></path></g></svg>