<svg width="217" height="216" viewBox="0 0 217 216" fill="none" xmlns="http://www.w3.org/2000/svg">
<rect width="216.081" height="215.551" rx="107.776" fill="#BAF845"/>
<path d="M85.9219 129.096L129.113 85.9048M129.113 85.9048H96.7197M129.113 85.9048V118.298" stroke="#00464B" stroke-width="3" stroke-linecap="round" stroke-linejoin="round"/>
<path d="M100.992 11.7999L108.524 32.9502H108.681L116.213 11.7999H117.692L109.409 34.7548H107.795L99.5123 11.7999H100.992Z" fill="#00464B"/>
<path d="M124.989 36.7461L129.109 20.0302L130.426 20.3547L126.306 37.0706L124.989 36.7461ZM130.502 17.2337C130.212 17.1622 129.983 16.998 129.816 16.7412C129.655 16.4862 129.611 16.2136 129.682 15.9234C129.754 15.6332 129.92 15.4124 130.18 15.2612C130.441 15.1099 130.72 15.0709 131.017 15.1442C131.308 15.2157 131.533 15.379 131.693 15.634C131.861 15.8908 131.909 16.1643 131.837 16.4545C131.766 16.7447 131.6 16.9655 131.339 17.1167C131.079 17.268 130.8 17.307 130.502 17.2337Z" fill="#00464B"/>
<path d="M143.013 44.0682C141.637 43.3459 140.618 42.3767 139.957 41.1604C139.296 39.9441 138.998 38.598 139.064 37.122C139.13 35.6459 139.56 34.1503 140.356 32.6352C141.154 31.1134 142.144 29.9029 143.325 29.0036C144.512 28.1079 145.776 27.5729 147.117 27.3987C148.457 27.2245 149.756 27.4673 151.013 28.1271C151.866 28.5751 152.583 29.1708 153.164 29.9142C153.754 30.6544 154.172 31.4982 154.417 32.4456C154.669 33.3964 154.723 34.4119 154.578 35.492C154.44 36.5755 154.074 37.683 153.48 38.8144L153.084 39.5687L141.016 33.2348L141.594 32.1331L152.451 37.8316C153.031 36.7266 153.329 35.6128 153.344 34.4901C153.36 33.3673 153.117 32.3415 152.618 31.4125C152.118 30.4835 151.385 29.7655 150.419 29.2585C149.407 28.7272 148.354 28.5377 147.262 28.69C146.179 28.8392 145.155 29.2719 144.188 29.9882C143.228 30.708 142.427 31.6549 141.786 32.8288L141.525 33.325C140.858 34.5953 140.481 35.853 140.393 37.098C140.315 38.3398 140.539 39.4739 141.063 40.5003C141.591 41.5201 142.438 42.3356 143.602 42.9467C144.436 43.3843 145.22 43.6186 145.955 43.6498C146.699 43.6778 147.366 43.589 147.955 43.3833C148.544 43.1777 149.034 42.9366 149.423 42.6602L150.291 43.685C149.792 44.0729 149.164 44.3931 148.407 44.6456C147.66 44.895 146.824 44.9922 145.899 44.9372C144.981 44.8857 144.019 44.596 143.013 44.0682Z" fill="#00464B"/>
<path d="M153.008 50.0571L160.565 33.7516L161.639 34.703L154.876 49.031L154.968 49.1128L168.385 40.6788L169.45 41.6227L162.694 55.9424L162.778 56.0167L176.178 47.5837L177.252 48.5351L161.977 58.0025L160.836 56.9917L167.484 42.8612L167.375 42.7646L154.149 51.0679L153.008 50.0571Z" fill="#00464B"/>
<path d="M176.237 81.6672L173.98 75.7145L195.443 67.5746L197.875 73.9884C198.638 76.0006 198.865 77.8844 198.556 79.64C198.247 81.3955 197.44 82.9561 196.136 84.3218C194.842 85.6918 193.082 86.7947 190.858 87.6303C188.584 88.4844 186.491 88.8228 184.578 88.6454C182.671 88.4653 181.005 87.7907 179.578 86.6215C178.159 85.4496 177.045 83.7981 176.237 81.6672ZM175.692 76.5635L177.433 81.1537C178.159 83.0681 179.152 84.5376 180.411 85.5623C181.678 86.5843 183.155 87.1591 184.841 87.2867C186.531 87.4212 188.373 87.106 190.369 86.3412C192.339 85.594 193.903 84.6292 195.061 83.4469C196.226 82.2619 196.95 80.9044 197.233 79.3746C197.518 77.8518 197.321 76.1926 196.64 74.397L194.724 69.3456L175.692 76.5635Z" fill="#00464B"/>
<path d="M180.338 100.367C180.151 98.8242 180.37 97.4352 180.995 96.2001C181.62 94.965 182.559 93.9552 183.811 93.1709C185.063 92.3866 186.539 91.8913 188.237 91.685C189.943 91.4779 191.502 91.6048 192.913 92.0658C194.325 92.5342 195.483 93.2704 196.388 94.2746C197.292 95.2788 197.83 96.4855 198.001 97.8949C198.118 98.8518 198.035 99.7802 197.752 100.68C197.479 101.587 197.022 102.41 196.381 103.15C195.742 103.897 194.937 104.518 193.965 105.013C192.995 105.514 191.876 105.842 190.607 105.996L189.762 106.099L188.119 92.5688L189.354 92.4189L190.832 104.592C192.071 104.441 193.156 104.053 194.089 103.428C195.022 102.803 195.729 102.021 196.209 101.082C196.69 100.143 196.864 99.1319 196.733 98.0489C196.595 96.914 196.153 95.9402 195.407 95.1275C194.67 94.3214 193.731 93.724 192.593 93.3353C191.455 92.9541 190.221 92.833 188.89 92.9719L188.334 93.0395C186.91 93.2124 185.66 93.6163 184.586 94.2511C183.52 94.8924 182.713 95.7205 182.166 96.7353C181.627 97.7492 181.437 98.9089 181.595 100.214C181.709 101.149 181.961 101.928 182.353 102.55C182.753 103.179 183.205 103.677 183.709 104.045C184.213 104.413 184.689 104.679 185.138 104.843L184.787 106.138C184.185 105.948 183.564 105.613 182.926 105.134C182.297 104.661 181.742 104.028 181.262 103.236C180.783 102.451 180.475 101.495 180.338 100.367Z" fill="#00464B"/>
<path d="M197.169 122.375L195.956 122.228L196.862 114.761L198.075 114.909L197.169 122.375ZM201.863 117.932L201.7 119.278L184.553 117.196C183.856 117.111 183.269 117.176 182.791 117.389C182.32 117.61 181.951 117.926 181.682 118.338C181.421 118.758 181.259 119.22 181.198 119.724C181.168 119.969 181.161 120.183 181.176 120.365C181.191 120.555 181.218 120.735 181.258 120.906L179.982 121.09C179.933 120.873 179.898 120.635 179.877 120.377C179.848 120.117 179.854 119.817 179.896 119.476C179.982 118.764 180.224 118.108 180.62 117.509C181.015 116.917 181.541 116.462 182.197 116.142C182.853 115.823 183.611 115.716 184.472 115.82L201.863 117.932Z" fill="#00464B"/>
<path d="M176.252 132.797C176.604 131.868 177.113 131.086 177.777 130.451C178.439 129.823 179.215 129.41 180.105 129.212C180.993 129.021 181.946 129.119 182.966 129.506C183.637 129.76 184.183 130.103 184.602 130.534C185.022 130.965 185.323 131.499 185.506 132.135C185.688 132.772 185.751 133.523 185.694 134.388C185.644 135.256 185.482 136.254 185.207 137.38C184.994 138.235 184.812 139 184.659 139.678C184.513 140.358 184.472 140.918 184.537 141.358C184.599 141.805 184.837 142.107 185.249 142.263L185.92 142.517C187.093 142.962 188.167 142.946 189.139 142.468C190.112 141.989 190.844 141.1 191.337 139.801C191.774 138.648 191.888 137.58 191.677 136.597C191.471 135.624 191.029 134.829 190.352 134.213L191.259 133.178C191.911 133.777 192.382 134.463 192.673 135.237C192.96 136.017 193.086 136.832 193.052 137.682C193.014 138.539 192.838 139.383 192.523 140.215C192.25 140.934 191.889 141.581 191.44 142.153C190.988 142.733 190.46 143.2 189.854 143.554C189.246 143.915 188.563 144.123 187.806 144.18C187.057 144.239 186.238 144.101 185.351 143.764L174.106 139.499L174.591 138.221L177.494 139.322L177.529 139.227C177.035 138.72 176.632 138.128 176.321 137.451C176.015 136.783 175.845 136.051 175.811 135.255C175.782 134.469 175.929 133.65 176.252 132.797ZM177.388 133.372C177.007 134.378 176.914 135.362 177.109 136.323C177.308 137.293 177.754 138.162 178.446 138.928C179.139 139.694 180.03 140.284 181.12 140.697L183.488 141.595C183.409 141.382 183.372 141.1 183.377 140.75C183.386 140.41 183.422 140.032 183.484 139.616C183.55 139.209 183.631 138.784 183.727 138.341C183.828 137.908 183.928 137.486 184.027 137.077C184.333 135.85 184.479 134.81 184.466 133.959C184.458 133.116 184.285 132.435 183.947 131.915C183.606 131.403 183.103 131.02 182.44 130.768C181.343 130.352 180.333 130.401 179.411 130.915C178.489 131.428 177.815 132.247 177.388 133.372Z" fill="#00464B"/>
<path d="M168.447 148.807L182.615 158.587L181.845 159.703L167.676 149.924L168.447 148.807ZM184.736 160.882C184.906 160.636 185.14 160.48 185.44 160.414C185.735 160.355 186.006 160.41 186.252 160.58C186.498 160.75 186.645 160.983 186.694 161.28C186.743 161.578 186.681 161.852 186.507 162.104C186.337 162.35 186.105 162.503 185.809 162.563C185.51 162.628 185.237 162.576 184.991 162.406C184.745 162.236 184.597 162.003 184.548 161.706C184.499 161.409 184.562 161.134 184.736 160.882Z" fill="#00464B"/>
<path d="M171.12 180.115L155.898 162.933L156.922 162.026L172.144 179.208L171.12 180.115Z" fill="#00464B"/>
<path d="M142.543 187.388L143.509 186.502C143.979 186.964 144.485 187.31 145.028 187.54C145.571 187.77 146.151 187.862 146.768 187.816C147.383 187.781 148.037 187.581 148.732 187.216C149.85 186.629 150.62 185.87 151.043 184.939C151.46 184.012 151.433 183.102 150.965 182.209C150.583 181.481 150.025 181.006 149.292 180.783C148.562 180.566 147.637 180.596 146.516 180.872L143.867 181.516C142.506 181.85 141.346 181.843 140.387 181.494C139.431 181.152 138.694 180.488 138.177 179.502C137.736 178.662 137.573 177.798 137.69 176.91C137.806 176.022 138.172 175.184 138.788 174.396C139.398 173.612 140.235 172.941 141.301 172.382C142.723 171.635 144.065 171.353 145.325 171.535C146.589 171.725 147.676 172.373 148.587 173.482L147.582 174.389C146.843 173.511 145.992 172.991 145.029 172.83C144.064 172.678 143.019 172.898 141.894 173.488C140.65 174.141 139.802 174.961 139.35 175.95C138.892 176.941 138.904 177.897 139.387 178.817C139.755 179.518 140.291 179.992 140.994 180.239C141.697 180.486 142.565 180.482 143.596 180.228L146.34 179.547C147.743 179.199 148.932 179.195 149.904 179.537C150.88 179.886 151.627 180.553 152.145 181.539C152.575 182.359 152.739 183.193 152.635 184.041C152.531 184.888 152.194 185.686 151.624 186.432C151.054 187.179 150.283 187.807 149.31 188.318C148.02 188.995 146.808 189.243 145.675 189.061C144.541 188.879 143.498 188.322 142.543 187.388Z" fill="#00464B"/>
<path d="M115.091 203.752L107.559 182.601H107.402L99.8696 203.752H98.3901L106.673 180.797H108.287L116.57 203.752H115.091Z" fill="#00464B"/>
<path d="M91.0947 178.805L86.9746 195.521L85.6578 195.197L89.7779 178.481L91.0947 178.805ZM85.5812 198.318C85.8714 198.389 86.1003 198.554 86.2679 198.81C86.4282 199.065 86.4726 199.338 86.4011 199.628C86.3295 199.918 86.1635 200.139 85.9031 200.29C85.6426 200.442 85.3636 200.481 85.0662 200.407C84.776 200.336 84.5507 200.173 84.3904 199.918C84.2228 199.661 84.1748 199.387 84.2463 199.097C84.3178 198.807 84.4838 198.586 84.7443 198.435C85.0048 198.283 85.2837 198.245 85.5812 198.318Z" fill="#00464B"/>
<path d="M73.0681 171.483C74.4443 172.206 75.463 173.175 76.1243 174.391C76.7856 175.607 77.0833 176.954 77.0175 178.43C76.9517 179.906 76.5212 181.401 75.7259 182.916C74.9273 184.438 73.9375 185.649 72.7567 186.548C71.5692 187.444 70.3053 187.979 68.9649 188.153C67.6246 188.327 66.3258 188.084 65.0687 187.424C64.2152 186.976 63.4983 186.381 62.918 185.637C62.3276 184.897 61.9097 184.053 61.6642 183.106C61.4122 182.155 61.3587 181.14 61.5036 180.06C61.6419 178.976 62.0079 177.869 62.6017 176.737L62.9976 175.983L75.0659 182.317L74.4877 183.418L63.6302 177.72C63.0503 178.825 62.7527 179.939 62.7373 181.061C62.7219 182.184 62.964 183.21 63.4638 184.139C63.9636 185.068 64.6965 185.786 65.6625 186.293C66.6748 186.824 67.7273 187.014 68.8199 186.861C69.9024 186.712 70.927 186.28 71.8937 185.563C72.8537 184.844 73.6544 183.897 74.2959 182.723L74.5563 182.227C75.223 180.956 75.6004 179.699 75.6884 178.454C75.7663 177.212 75.543 176.078 75.0184 175.051C74.4903 174.031 73.644 173.216 72.4795 172.605C71.6458 172.167 70.8617 171.933 70.127 171.902C69.3822 171.874 68.7153 171.963 68.1263 172.168C67.5374 172.374 67.048 172.615 66.6582 172.891L65.7909 171.867C66.2899 171.479 66.9179 171.158 67.6749 170.906C68.4218 170.657 69.2576 170.559 70.1824 170.614C71.1005 170.666 72.0624 170.955 73.0681 171.483Z" fill="#00464B"/>
<path d="M63.0744 165.494L55.5172 181.8L54.4433 180.849L61.207 166.52L61.1147 166.439L47.698 174.873L46.6325 173.929L53.3888 159.609L53.3049 159.535L39.9041 167.968L38.8302 167.016L54.1059 157.549L55.2469 158.56L48.5982 172.69L48.7073 172.787L61.9334 164.484L63.0744 165.494Z" fill="#00464B"/>
<path d="M39.08 134.687L41.2258 140.345L20.8254 148.082L18.5134 141.986C17.7881 140.073 17.5724 138.283 17.8663 136.614C18.1601 134.946 18.9269 133.462 20.1664 132.164C21.3968 130.862 23.0692 129.814 25.1835 129.02C27.3442 128.208 29.3339 127.886 31.1525 128.055C32.9645 128.226 34.5483 128.867 35.9041 129.979C37.2532 131.092 38.3119 132.662 39.08 134.687ZM39.5981 139.538L37.9434 135.175C37.2533 133.356 36.3096 131.959 35.1123 130.985C33.9084 130.014 32.5048 129.467 30.9017 129.346C29.296 129.218 27.5449 129.518 25.6481 130.245C23.7754 130.955 22.2888 131.872 21.1882 132.996C20.081 134.122 19.393 135.412 19.1241 136.866C18.8526 138.314 19.0406 139.891 19.6878 141.598L21.5087 146.399L39.5981 139.538Z" fill="#00464B"/>
<path d="M34.7897 115.777C34.9678 117.243 34.7597 118.563 34.1653 119.737C33.5709 120.911 32.6787 121.871 31.4886 122.616C30.2984 123.362 28.8961 123.833 27.2815 124.029C25.6599 124.226 24.1786 124.105 22.8376 123.667C21.4958 123.222 20.3948 122.522 19.5349 121.567C18.6749 120.613 18.1636 119.466 18.001 118.126C17.8905 117.217 17.9694 116.334 18.2376 115.479C18.4979 114.618 18.9323 113.835 19.5408 113.132C20.1485 112.421 20.914 111.831 21.8371 111.361C22.7593 110.884 23.8233 110.573 25.0289 110.426L25.8327 110.329L27.3942 123.189L26.2203 123.331L24.8154 111.761C23.638 111.904 22.606 112.273 21.7194 112.867C20.8329 113.461 20.1612 114.204 19.7044 115.097C19.2475 115.99 19.0816 116.951 19.2066 117.98C19.3376 119.059 19.7576 119.984 20.4667 120.757C21.1679 121.523 22.0596 122.091 23.1418 122.46C24.2232 122.822 25.3962 122.938 26.6608 122.805L27.1896 122.741C28.5433 122.577 29.7308 122.193 30.7522 121.59C31.7657 120.98 32.5322 120.193 33.0518 119.229C33.5644 118.265 33.7454 117.163 33.5947 115.922C33.4868 115.033 33.2467 114.293 32.8744 113.702C32.4942 113.104 32.0646 112.63 31.5858 112.281C31.1069 111.931 30.6541 111.678 30.2274 111.523L30.5608 110.291C31.1336 110.472 31.7232 110.79 32.3294 111.246C32.9277 111.696 33.4551 112.297 33.9114 113.05C34.3668 113.796 34.6596 114.705 34.7897 115.777Z" fill="#00464B"/>
<path d="M18.7119 93.5978L19.8647 93.7378L19.003 100.834L17.8503 100.694L18.7119 93.5978ZM14.2499 97.8209L14.4053 96.5412L30.7025 98.52C31.3652 98.6005 31.9235 98.5395 32.3774 98.3371C32.825 98.1267 33.1763 97.8259 33.4313 97.4348C33.6801 97.0357 33.8336 96.5965 33.8918 96.1171C33.92 95.8844 33.9268 95.6813 33.9121 95.5078C33.8983 95.3273 33.8725 95.156 33.835 94.9941L35.0474 94.8193C35.0939 95.0253 35.1273 95.2511 35.1476 95.4969C35.1749 95.7434 35.1688 96.0289 35.1295 96.3532C35.0473 97.03 34.8178 97.6532 34.441 98.2228C34.065 98.7852 33.5653 99.2182 32.9418 99.5217C32.3183 99.8252 31.5976 99.9273 30.7798 99.8279L14.2499 97.8209Z" fill="#00464B"/>
<path d="M38.7466 82.7357C38.4116 83.619 37.9284 84.3624 37.2969 84.966C36.6679 85.563 35.9303 85.9555 35.0842 86.1436C34.2407 86.325 33.3341 86.2318 32.3646 85.8641C31.727 85.6224 31.2087 85.2967 30.8096 84.887C30.4104 84.4774 30.1243 83.9701 29.9511 83.3651C29.778 82.7601 29.7183 82.0463 29.7721 81.2235C29.8192 80.3983 29.9736 79.4504 30.2353 78.3798C30.437 77.5676 30.6105 76.8396 30.7559 76.196C30.8946 75.5498 30.9332 75.0175 30.8715 74.5991C30.8124 74.1741 30.587 73.8873 30.1952 73.7387L29.5577 73.497C28.442 73.0739 27.422 73.0896 26.4976 73.5442C25.5732 73.9988 24.8768 74.8436 24.4084 76.0788C23.9928 77.1745 23.8851 78.1895 24.0853 79.1238C24.2814 80.0489 24.7013 80.8044 25.345 81.3903L24.4822 82.3734C23.8625 81.8042 23.4148 81.1521 23.1391 80.417C22.8659 79.6754 22.7457 78.9006 22.7787 78.0927C22.8141 77.2782 22.9817 76.4758 23.2814 75.6856C23.5408 75.0016 23.8839 74.3873 24.3107 73.8428C24.74 73.2916 25.2425 72.8479 25.8182 72.5117C26.3963 72.1689 27.045 71.9706 27.7643 71.9167C28.4769 71.8603 29.2549 71.9921 30.0982 72.3119L40.7865 76.3655L40.3256 77.5807L37.5664 76.5343L37.5324 76.6239C38.0028 77.1061 38.3855 77.6691 38.6807 78.3128C38.9718 78.9473 39.1334 79.6428 39.1655 80.3994C39.1935 81.1468 39.0538 81.9256 38.7466 82.7357ZM37.6663 82.1893C38.029 81.233 38.1177 80.2982 37.9324 79.3848C37.7429 78.4622 37.3192 77.6369 36.661 76.9087C36.0029 76.1806 35.1558 75.6201 34.1199 75.2272L31.8687 74.3734C31.9435 74.5765 31.9787 74.8443 31.9741 75.1768C31.9655 75.5001 31.9317 75.8595 31.8729 76.255C31.8099 76.6413 31.7328 77.045 31.6414 77.4661C31.546 77.8781 31.451 78.2788 31.3564 78.6683C31.0661 79.8343 30.9269 80.8222 30.9389 81.6319C30.9467 82.4324 31.1114 83.0797 31.4329 83.5739C31.757 84.0614 32.2344 84.4247 32.8653 84.664C33.9079 85.0594 34.8673 85.0131 35.7436 84.5251C36.6199 84.0371 37.2608 83.2585 37.6663 82.1893Z" fill="#00464B"/>
<path d="M46.7299 66.2944L33.2628 56.9988L33.9951 55.9379L47.4621 65.2335L46.7299 66.2944ZM31.2472 54.8179C31.0858 55.0517 30.8628 55.1997 30.5781 55.2621C30.2974 55.3187 30.0402 55.2663 29.8064 55.1049C29.5726 54.9435 29.4324 54.7216 29.3857 54.4391C29.3391 54.1566 29.3984 53.8956 29.5638 53.6559C29.7252 53.4221 29.9463 53.2769 30.2269 53.2204C30.5116 53.158 30.7709 53.2075 31.0047 53.3689C31.2385 53.5303 31.3787 53.7522 31.4254 54.0347C31.472 54.3171 31.4126 54.5782 31.2472 54.8179Z" fill="#00464B"/>
<path d="M44.8948 35.6764L59.363 52.0075L58.3902 52.8694L43.922 36.5383L44.8948 35.6764Z" fill="#00464B"/>
<path d="M72.7788 28.1874L71.8614 29.0298C71.4143 28.5907 70.9329 28.2618 70.4171 28.0432C69.9014 27.8247 69.35 27.737 68.7632 27.7803C68.1793 27.8141 67.5572 28.0042 66.8969 28.3508C65.8341 28.9086 65.1017 29.6298 64.6998 30.5145C64.3041 31.396 64.3291 32.2612 64.7747 33.1101C65.1377 33.8019 65.6676 34.2537 66.3643 34.4656C67.0578 34.6711 67.9372 34.6427 69.0026 34.3803L71.5209 33.7684C72.814 33.4507 73.9165 33.4576 74.8285 33.7891C75.7371 34.1144 76.4373 34.7455 76.9291 35.6825C77.3482 36.4812 77.5026 37.3025 77.3921 38.1466C77.2817 38.9906 76.9336 39.7869 76.3479 40.5355C75.7685 41.2807 74.9725 41.919 73.96 42.4504C72.608 43.1601 71.333 43.4282 70.1351 43.2548C68.9338 43.0751 67.9004 42.4585 67.0346 41.4049L67.9897 40.5427C68.6924 41.3771 69.501 41.871 70.4158 42.0246C71.3336 42.1685 72.327 41.96 73.3961 41.3989C74.5784 40.7784 75.3843 39.9985 75.8137 39.0592C76.2495 38.1166 76.2379 37.2083 75.7792 36.3342C75.4293 35.6675 74.9201 35.2169 74.2515 34.9823C73.5829 34.7476 72.7586 34.7512 71.7785 34.9928L69.1704 35.6398C67.8363 35.971 66.7069 35.9742 65.7824 35.6493C64.8546 35.3181 64.1448 34.684 63.6531 33.7469C63.2438 32.9671 63.0884 32.1744 63.1869 31.3687C63.2854 30.563 63.6057 29.8054 64.1477 29.0958C64.6897 28.3863 65.4229 27.7889 66.3473 27.3037C67.5736 26.6601 68.7254 26.4246 69.8025 26.5972C70.8797 26.7698 71.8718 27.2998 72.7788 28.1874Z" fill="#00464B"/>
</svg>
