<svg width="217" height="216" viewBox="0 0 217 216" fill="none" xmlns="http://www.w3.org/2000/svg">
<path d="M85.9219 129.096L129.113 85.9048M129.113 85.9048H96.7197M129.113 85.9048V118.298" stroke="white" stroke-width="4" stroke-linecap="round" stroke-linejoin="round"/>
<path d="M103.087 11.7999L109.476 30.4955H109.734L116.123 11.7999H119.866L111.606 34.7548H107.604L99.3437 11.7999H103.087Z" fill="white"/>
<path d="M124.358 36.5905L128.478 19.8746L131.732 20.6766L127.611 37.3925L124.358 36.5905ZM130.757 17.7004C130.191 17.5609 129.751 17.2525 129.438 16.7751C129.134 16.2922 129.047 15.786 129.177 15.2563C129.31 14.7194 129.622 14.3115 130.114 14.0326C130.615 13.7482 131.148 13.6758 131.714 13.8153C132.28 13.9548 132.715 14.2659 133.02 14.7488C133.333 15.2262 133.423 15.7334 133.291 16.2703C133.16 16.7999 132.845 17.2069 132.344 17.4913C131.852 17.7702 131.323 17.8399 130.757 17.7004Z" fill="white"/>
<path d="M143.127 44.1156C141.625 43.3273 140.5 42.3275 139.752 41.1163C139.014 39.9018 138.658 38.5545 138.683 37.0744C138.719 35.5911 139.152 34.0588 139.982 32.4774C140.802 30.916 141.815 29.6926 143.022 28.8072C144.236 27.9253 145.545 27.4263 146.947 27.3102C148.357 27.1975 149.769 27.5127 151.185 28.2559C152.045 28.7073 152.804 29.2871 153.462 29.9952C154.12 30.7034 154.61 31.5303 154.933 32.4758C155.255 33.4213 155.346 34.4777 155.206 35.6447C155.07 36.8052 154.639 38.0768 153.913 39.4597L153.361 40.5117L141.243 34.1517L142.41 31.9286L151.62 36.7624C152.029 35.9816 152.233 35.2069 152.232 34.4381C152.234 33.6627 152.039 32.9486 151.647 32.2958C151.262 31.6465 150.686 31.1205 149.919 30.7177C149.085 30.2801 148.249 30.1033 147.412 30.1871C146.585 30.2677 145.831 30.547 145.15 31.0249C144.479 31.4997 143.943 32.1175 143.544 32.8784L142.632 34.6152C142.098 35.6341 141.821 36.5947 141.804 37.4967C141.792 38.4023 142.012 39.2138 142.463 39.9312C142.917 40.6421 143.577 41.2249 144.444 41.6798C145.006 41.975 145.561 42.1647 146.107 42.249C146.657 42.3267 147.186 42.292 147.693 42.1449C148.201 41.9978 148.669 41.7329 149.098 41.3503L151.641 43.3305C150.982 44.0395 150.198 44.5522 149.289 44.8685C148.391 45.1817 147.414 45.2812 146.36 45.1669C145.317 45.0494 144.239 44.699 143.127 44.1156Z" fill="white"/>
<path d="M152.555 49.6557L160.179 33.4097L162.772 35.7064L156.913 47.4071L157.039 47.5186L167.957 40.2997L170.549 42.5964L164.719 54.2477L164.845 54.3592L175.7 47.16L178.293 49.4567L163.092 58.9911L160.534 56.7241L166.159 45.1011L165.966 44.9301L155.106 51.9152L152.555 49.6557Z" fill="white"/>
<path d="M176.332 81.9187L173.697 74.9704L195.16 66.8305L197.879 73.9989C198.676 76.1019 198.931 78.0709 198.644 79.9059C198.364 81.7383 197.577 83.3597 196.282 84.7699C194.996 86.1845 193.239 87.3144 191.01 88.1597C188.774 89.0076 186.698 89.3276 184.781 89.1195C182.867 88.9185 181.185 88.2138 179.735 87.0052C178.293 85.7941 177.159 84.0986 176.332 81.9187ZM177.755 77.1356L179.094 80.6674C179.714 82.3023 180.537 83.5446 181.562 84.3944C182.595 85.2415 183.8 85.7115 185.178 85.8043C186.563 85.8945 188.104 85.6176 189.802 84.9738C191.485 84.3352 192.812 83.5243 193.782 82.5412C194.754 81.565 195.344 80.4342 195.552 79.1487C195.76 77.8632 195.567 76.4379 194.973 74.8729L193.559 71.142L177.755 77.1356Z" fill="white"/>
<path d="M180.364 100.488C180.16 98.8043 180.343 97.3104 180.915 96.0065C181.495 94.7092 182.402 93.6507 183.634 92.8311C184.876 92.018 186.382 91.5038 188.155 91.2885C189.906 91.076 191.488 91.215 192.903 91.7057C194.318 92.2037 195.472 92.997 196.365 94.0854C197.258 95.1813 197.801 96.523 197.994 98.1104C198.111 99.0747 198.065 100.029 197.856 100.972C197.647 101.916 197.245 102.789 196.649 103.592C196.054 104.394 195.237 105.069 194.197 105.617C193.164 106.164 191.873 106.531 190.323 106.72L189.143 106.863L187.494 93.277L189.986 92.9744L191.24 103.3C192.115 103.194 192.869 102.922 193.5 102.484C194.14 102.045 194.617 101.479 194.931 100.786C195.247 100.1 195.353 99.3268 195.248 98.4663C195.135 97.5317 194.806 96.7437 194.261 96.1022C193.725 95.4673 193.066 95.0053 192.286 94.7161C191.514 94.4335 190.702 94.344 189.849 94.4476L187.901 94.684C186.759 94.8227 185.812 95.141 185.059 95.6388C184.308 96.1441 183.765 96.7859 183.43 97.5641C183.103 98.3415 182.998 99.2161 183.116 100.188C183.193 100.818 183.352 101.382 183.593 101.88C183.841 102.377 184.17 102.792 184.58 103.126C184.989 103.461 185.473 103.695 186.031 103.831L185.846 107.049C184.888 106.909 184.021 106.555 183.245 105.987C182.476 105.425 181.84 104.678 181.335 103.746C180.839 102.82 180.515 101.734 180.364 100.488Z" fill="white"/>
<path d="M197.003 123.732L194.333 123.408L195.466 114.073L198.137 114.397L197.003 123.732ZM201.927 117.398L201.523 120.725L185.356 118.761C184.711 118.683 184.213 118.721 183.864 118.874C183.521 119.028 183.272 119.25 183.117 119.54C182.967 119.838 182.871 120.168 182.827 120.532C182.794 120.799 182.784 121.035 182.797 121.24C182.81 121.444 182.821 121.604 182.83 121.718L180.008 121.985C179.957 121.783 179.917 121.499 179.886 121.134C179.847 120.768 179.857 120.318 179.914 119.783C180.006 118.906 180.261 118.109 180.679 117.392C181.097 116.675 181.676 116.124 182.415 115.74C183.154 115.355 184.039 115.226 185.07 115.351L201.927 117.398Z" fill="white"/>
<path d="M176.289 132.667C176.676 131.647 177.214 130.797 177.904 130.115C178.601 129.437 179.404 128.994 180.314 128.788C181.221 128.588 182.202 128.688 183.257 129.088C184.165 129.433 184.846 129.891 185.301 130.463C185.755 131.035 186.041 131.683 186.158 132.406C186.275 133.13 186.282 133.892 186.178 134.692C186.075 135.492 185.924 136.289 185.726 137.085C185.472 138.092 185.266 138.909 185.108 139.536C184.957 140.166 184.914 140.649 184.978 140.985C185.042 141.322 185.263 141.561 185.641 141.704L185.714 141.732C186.629 142.079 187.436 142.09 188.136 141.763C188.832 141.444 189.372 140.778 189.757 139.765C190.157 138.71 190.238 137.79 190 137.004C189.767 136.229 189.411 135.618 188.933 135.173L190.72 132.482C191.566 133.203 192.162 134.012 192.508 134.911C192.859 135.819 193.004 136.765 192.943 137.749C192.888 138.735 192.677 139.714 192.309 140.685C192.065 141.328 191.73 141.98 191.303 142.641C190.881 143.312 190.351 143.886 189.714 144.364C189.075 144.849 188.308 145.153 187.414 145.278C186.527 145.405 185.496 145.246 184.322 144.801L173.633 140.746L174.793 137.686L176.994 138.521L177.042 138.395C176.713 138.039 176.43 137.584 176.193 137.03C175.955 136.477 175.828 135.833 175.81 135.099C175.793 134.365 175.953 133.555 176.289 132.667ZM178.546 134.303C178.217 135.169 178.108 135.974 178.217 136.719C178.323 137.471 178.592 138.112 179.022 138.643C179.456 139.183 179.991 139.574 180.627 139.815L182.702 140.602C182.633 140.448 182.61 140.191 182.634 139.833C182.663 139.484 182.719 139.094 182.803 138.662C182.893 138.233 182.984 137.816 183.073 137.41C183.17 137.007 183.25 136.67 183.313 136.398C183.467 135.761 183.548 135.157 183.558 134.585C183.564 134.02 183.453 133.522 183.225 133.092C183.001 132.671 182.609 132.355 182.05 132.143C181.275 131.849 180.579 131.913 179.964 132.335C179.355 132.759 178.883 133.415 178.546 134.303Z" fill="white"/>
<path d="M168.816 148.272L182.984 158.052L181.081 160.81L166.912 151.03L168.816 148.272ZM184.209 160.954C184.54 160.474 184.985 160.173 185.542 160.049C186.101 159.936 186.606 160.034 187.055 160.344C187.51 160.658 187.78 161.095 187.867 161.654C187.955 162.223 187.833 162.748 187.502 163.227C187.171 163.707 186.726 164.003 186.167 164.117C185.609 164.24 185.103 164.145 184.648 163.831C184.199 163.521 183.93 163.081 183.842 162.512C183.756 161.953 183.878 161.434 184.209 160.954Z" fill="white"/>
<path d="M170.071 181.044L154.849 163.862L157.358 161.64L172.58 178.822L170.071 181.044Z" fill="white"/>
<path d="M141.093 187.592L143.533 185.704C143.826 185.989 144.176 186.223 144.584 186.405C144.986 186.591 145.443 186.676 145.958 186.659C146.472 186.642 147.037 186.472 147.652 186.149C148.493 185.708 149.095 185.152 149.46 184.479C149.827 183.814 149.857 183.186 149.548 182.597C149.28 182.088 148.877 181.777 148.336 181.664C147.796 181.551 147.053 181.615 146.109 181.858L143.396 182.573C141.823 182.985 140.515 183.034 139.473 182.721C138.431 182.407 137.627 181.711 137.061 180.632C136.581 179.719 136.419 178.766 136.573 177.774C136.724 176.792 137.164 175.852 137.891 174.956C138.612 174.062 139.588 173.293 140.819 172.647C142.526 171.751 144.11 171.384 145.57 171.546C147.034 171.714 148.243 172.409 149.196 173.63L146.557 175.572C145.986 174.918 145.322 174.545 144.565 174.453C143.811 174.368 142.987 174.56 142.094 175.028C141.122 175.539 140.45 176.149 140.08 176.858C139.713 177.574 139.684 178.226 139.993 178.815C140.243 179.291 140.632 179.598 141.159 179.734C141.68 179.875 142.348 179.836 143.162 179.62L146.039 178.831C147.632 178.409 148.955 178.373 150.008 178.723C151.054 179.077 151.862 179.796 152.432 180.881C152.904 181.781 153.066 182.7 152.917 183.639C152.769 184.578 152.35 185.469 151.661 186.311C150.976 187.16 150.061 187.885 148.917 188.486C147.269 189.35 145.785 189.674 144.464 189.456C143.146 189.244 142.022 188.623 141.093 187.592Z" fill="white"/>
<path d="M112.995 203.752L106.606 185.056H106.348L99.9593 203.752H96.2157L104.476 180.797H108.478L116.738 203.752H112.995Z" fill="white"/>
<path d="M91.7259 178.961L87.6058 195.677L84.3519 194.875L88.472 178.159L91.7259 178.961ZM85.3268 197.851C85.8927 197.991 86.3323 198.299 86.6456 198.776C86.9499 199.259 87.0367 199.766 86.9062 200.295C86.7739 200.832 86.4617 201.24 85.9697 201.519C85.4686 201.803 84.9351 201.876 84.3692 201.736C83.8033 201.597 83.3682 201.286 83.064 200.803C82.7507 200.325 82.6602 199.818 82.7925 199.281C82.9231 198.752 83.2389 198.345 83.7399 198.06C84.2319 197.781 84.7609 197.712 85.3268 197.851Z" fill="white"/>
<path d="M72.9537 171.436C74.4556 172.224 75.5807 173.224 76.329 174.435C77.0672 175.65 77.4233 176.997 77.3976 178.477C77.3617 179.96 76.9288 181.493 76.0989 183.074C75.2793 184.636 74.2659 185.859 73.0586 186.744C71.8447 187.626 70.5364 188.125 69.1337 188.241C67.7243 188.354 66.3117 188.039 64.8958 187.296C64.0356 186.844 63.2766 186.264 62.6187 185.556C61.9609 184.848 61.4708 184.021 61.1484 183.076C60.8261 182.13 60.7349 181.074 60.8749 179.907C61.0114 178.746 61.4425 177.475 62.1682 176.092L62.7204 175.04L74.8383 181.4L73.6715 183.623L64.4615 178.789C64.0517 179.57 63.8477 180.345 63.8492 181.113C63.8474 181.889 64.0422 182.603 64.4338 183.256C64.8188 183.905 65.395 184.431 66.1625 184.834C66.9962 185.271 67.8316 185.448 68.6688 185.364C69.496 185.284 70.2502 185.005 70.9314 184.527C71.6025 184.052 72.1378 183.434 72.5371 182.673L73.4486 180.936C73.9834 179.917 74.2597 178.957 74.2774 178.055C74.2886 177.149 74.0689 176.338 73.6184 175.62C73.1645 174.909 72.5041 174.327 71.6374 173.872C71.075 173.577 70.5205 173.387 69.9741 173.302C69.4241 173.225 68.8953 173.26 68.3877 173.407C67.8801 173.554 67.412 173.819 66.9833 174.201L64.4403 172.221C65.0994 171.512 65.8832 170.999 66.7919 170.683C67.6904 170.37 68.6667 170.27 69.7206 170.385C70.7645 170.502 71.8422 170.853 72.9537 171.436Z" fill="white"/>
<path d="M63.5269 165.896L55.9026 182.142L53.3102 179.845L59.1689 168.144L59.043 168.033L48.1254 175.252L45.533 172.955L51.3629 161.304L51.2371 161.192L40.3818 168.391L37.7894 166.095L52.9896 156.56L55.5484 158.827L49.9232 170.45L50.1162 170.621L60.9765 163.636L63.5269 165.896Z" fill="white"/>
<path d="M38.9893 134.448L41.494 141.053L21.0936 148.789L18.5097 141.976C17.7516 139.977 17.509 138.106 17.7818 136.361C18.0479 134.62 18.7966 133.079 20.0277 131.738C21.2496 130.394 22.9198 129.32 25.0382 128.516C27.1632 127.711 29.1368 127.406 30.9588 127.604C32.7783 127.795 34.3768 128.465 35.7544 129.614C37.1252 130.765 38.2036 132.376 38.9893 134.448ZM37.6372 138.995L36.3641 135.638C35.7747 134.084 34.9927 132.903 34.0179 132.095C33.0365 131.29 31.8911 130.843 30.5815 130.755C29.2653 130.669 27.8003 130.933 26.1866 131.545C24.5862 132.152 23.3251 132.922 22.4034 133.857C21.4792 134.785 20.9183 135.859 20.7209 137.081C20.5234 138.303 20.7068 139.658 21.2709 141.145L22.6158 144.691L37.6372 138.995Z" fill="white"/>
<path d="M34.7645 115.661C34.9589 117.262 34.7843 118.682 34.2408 119.921C33.6894 121.154 32.8278 122.16 31.6561 122.939C30.4764 123.712 29.0441 124.201 27.359 124.406C25.6951 124.608 24.1909 124.475 22.8465 124.009C21.5012 123.536 20.4045 122.782 19.5562 121.747C18.7072 120.706 18.191 119.43 18.0078 117.921C17.8965 117.005 17.9403 116.098 18.139 115.201C18.3377 114.304 18.7199 113.474 19.2855 112.712C19.8511 111.949 20.6281 111.307 21.6166 110.787C22.598 110.267 23.8255 109.918 25.2991 109.739L26.4201 109.603L27.988 122.516L25.6191 122.803L24.4274 112.989C23.5954 113.09 22.8792 113.349 22.2787 113.765C21.6712 114.182 21.2178 114.72 20.9186 115.379C20.6185 116.031 20.5182 116.765 20.6175 117.583C20.7253 118.472 21.0381 119.221 21.5557 119.83C22.0654 120.434 22.691 120.873 23.4327 121.148C24.1665 121.416 24.9387 121.501 25.7495 121.403L27.6003 121.178C28.6861 121.046 29.5866 120.744 30.3018 120.271C31.0162 119.79 31.5323 119.18 31.8503 118.441C32.1612 117.702 32.2606 116.871 32.1485 115.947C32.0757 115.348 31.9248 114.812 31.6956 114.339C31.4594 113.866 31.1468 113.472 30.7576 113.154C30.3685 112.836 29.9086 112.613 29.3778 112.484L29.5538 109.426C30.4642 109.559 31.2884 109.895 32.0265 110.435C32.7567 110.969 33.3616 111.679 33.8412 112.565C34.313 113.445 34.6207 114.477 34.7645 115.661Z" fill="white"/>
<path d="M18.8686 92.3075L21.4067 92.6157L20.3294 101.489L17.7912 101.181L18.8686 92.3075ZM14.1882 98.3285L14.5722 95.1663L29.9387 97.0322C30.5521 97.1067 31.0251 97.0711 31.3575 96.9254C31.683 96.7789 31.9196 96.568 32.0676 96.2926C32.2093 96.0093 32.3011 95.695 32.343 95.3495C32.3739 95.0957 32.3832 94.8714 32.3711 94.6768C32.3589 94.4822 32.3487 94.3307 32.3404 94.2223L35.0219 93.9684C35.0702 94.1603 35.109 94.4297 35.1384 94.7767C35.1749 95.1246 35.1658 95.5527 35.1112 96.0612C35.0243 96.8949 34.7821 97.6525 34.3846 98.334C33.987 99.0154 33.437 99.5389 32.7344 99.9043C32.0318 100.27 31.1905 100.393 30.2105 100.274L14.1882 98.3285Z" fill="white"/>
<path d="M38.7107 82.859C38.343 83.8286 37.8313 84.6372 37.1755 85.2848C36.5131 85.9299 35.7497 86.3506 34.8852 86.5468C34.0233 86.7365 33.091 86.6412 32.0883 86.2609C31.225 85.9335 30.5774 85.498 30.1455 84.9544C29.7136 84.4108 29.442 83.7951 29.3307 83.1072C29.2193 82.4193 29.2129 81.6953 29.3113 80.935C29.4097 80.1748 29.553 79.4164 29.7412 78.6598C29.9825 77.7031 30.1783 76.9266 30.3284 76.3303C30.472 75.7315 30.5132 75.2724 30.452 74.9529C30.3909 74.6335 30.181 74.4058 29.8224 74.2698L29.7527 74.2433C28.8827 73.9134 28.1155 73.9035 27.451 74.2136C26.789 74.517 26.2754 75.1502 25.9103 76.1131C25.53 77.1158 25.4527 77.9905 25.6785 78.7369C25.9002 79.4743 26.2385 80.0545 26.6933 80.4776L24.9942 83.0349C24.1904 82.3503 23.6239 81.581 23.2946 80.7268C22.9611 79.8636 22.8236 78.9645 22.8819 78.0295C22.9336 77.0921 23.1345 76.1618 23.4846 75.2387C23.7163 74.6278 24.0349 74.008 24.4404 73.3794C24.8417 72.7417 25.345 72.1957 25.9502 71.7416C26.5579 71.2809 27.2868 70.9914 28.1368 70.8732C28.9801 70.7525 29.9596 70.9037 31.0753 71.3268L41.2356 75.1801L40.1325 78.0887L38.0406 77.2954L37.9953 77.4149C38.3074 77.7536 38.5764 78.186 38.8022 78.7122C39.028 79.2384 39.1492 79.8503 39.1657 80.5477C39.1822 81.2452 39.0306 82.0157 38.7107 82.859ZM36.5656 81.3049C36.8779 80.4815 36.9822 79.7158 36.8784 79.008C36.7772 78.2936 36.5221 77.6842 36.1134 77.1797C35.7005 76.6662 35.1919 76.2948 34.5876 76.0656L32.6153 75.3176C32.6812 75.4641 32.7028 75.7078 32.6799 76.0485C32.6529 76.3801 32.5996 76.751 32.5199 77.1614C32.4336 77.5692 32.3477 77.9658 32.2623 78.3512C32.1703 78.7341 32.0943 79.0547 32.0343 79.313C31.8883 79.9184 31.8109 80.4929 31.8022 81.0366C31.7961 81.5735 31.9015 82.0465 32.1186 82.4555C32.3316 82.8553 32.7037 83.1559 33.235 83.3574C33.9721 83.6369 34.6332 83.5762 35.2182 83.1752C35.7966 82.7717 36.2458 82.1483 36.5656 81.3049Z" fill="white"/>
<path d="M46.3784 66.8029L32.9114 57.5073L34.7208 54.8858L48.1879 64.1814L46.3784 66.8029ZM31.7473 54.7491C31.4326 55.205 31.0103 55.4917 30.4804 55.6093C29.9487 55.7169 29.4695 55.6235 29.0428 55.329C28.6103 55.0304 28.353 54.6155 28.271 54.0842C28.1871 53.5431 28.3025 53.0445 28.6172 52.5886C28.9319 52.1327 29.3551 51.8509 29.8868 51.7433C30.4167 51.6257 30.8979 51.7162 31.3304 52.0148C31.7571 52.3093 32.0124 52.7272 32.0962 53.2683C32.1783 53.7996 32.062 54.2932 31.7473 54.7491Z" fill="white"/>
<path d="M45.8911 34.7933L60.3593 51.1245L57.975 53.2368L43.5068 36.9056L45.8911 34.7933Z" fill="white"/>
<path d="M74.1569 27.9935L71.8381 29.788C71.5596 29.5171 71.2264 29.2949 70.8386 29.1214C70.4571 28.9447 70.0219 28.8643 69.533 28.8803C69.044 28.8962 68.5071 29.0577 67.9223 29.3647C67.1236 29.7838 66.5511 30.3129 66.2047 30.9519C65.855 31.5847 65.827 32.1809 66.1207 32.7406C66.3749 33.2248 66.7587 33.5206 67.2723 33.6281C67.7859 33.7355 68.4916 33.674 69.3892 33.4435L71.9682 32.7637C73.4631 32.3721 74.7059 32.3254 75.6966 32.6236C76.6873 32.9218 77.4517 33.5835 77.9897 34.6085C78.4451 35.4764 78.5996 36.3819 78.4529 37.3251C78.3093 38.2588 77.8916 39.1518 77.1999 40.0041C76.5146 40.853 75.587 41.5845 74.4173 42.1984C72.7948 43.05 71.2895 43.3988 69.9014 43.2451C68.5099 43.085 67.3612 42.4246 66.4552 41.2638L68.9635 39.418C69.5063 40.0395 70.1375 40.394 70.8572 40.4815C71.5736 40.5627 72.3563 40.3805 73.2053 39.9349C74.1297 39.4497 74.768 38.8701 75.1201 38.196C75.4688 37.5157 75.4964 36.8957 75.2026 36.336C74.965 35.8832 74.5955 35.5918 74.0942 35.4619C73.5991 35.3287 72.9645 35.365 72.1902 35.5708L69.4554 36.3204C67.9416 36.7219 66.6842 36.7561 65.6833 36.4232C64.6887 36.087 63.9207 35.4032 63.3794 34.3718C62.9306 33.5165 62.7768 32.6427 62.918 31.7505C63.0593 30.8582 63.4573 30.0116 64.1118 29.2109C64.7631 28.4039 65.6327 27.7149 66.7206 27.1439C68.2865 26.322 69.6974 26.0147 70.9531 26.2219C72.2056 26.4228 73.2735 27.0133 74.1569 27.9935Z" fill="white"/>
</svg>
